<?xml version="1.0" encoding="UTF-8"?>
<svg width="24px" height="24px" viewBox="0 0 24 24" version="1.1" xmlns="http://www.w3.org/2000/svg" xmlns:xlink="http://www.w3.org/1999/xlink">
    <title>thank-you-cake-birthday-candle-festival copy 6</title>
    <g id="🚂-Playground" stroke="none" stroke-width="1" fill="none" fill-rule="evenodd">
        <g id="Homepage" transform="translate(-1200.000000, -2029.000000)" fill="#671219" fill-rule="nonzero">
            <g id="thank-you-cake-birthday-candle-festival-copy-6" transform="translate(1200.000000, 2029.000000)">
                <path d="M23.0769231,22.1637689 L22.1538462,22.1637689 L22.1538462,13.9007288 C22.1538462,13.393929 21.7403077,12.9826132 21.2307692,12.9826132 L14.7692308,12.9826132 L14.7692308,8.39203535 C14.7692308,7.88523555 14.3556923,7.47391978 13.8461538,7.47391978 L10.1538462,7.47391978 C9.64430769,7.47391978 9.23076923,7.88523555 9.23076923,8.39203535 L9.23076923,12.9826132 L2.76923077,12.9826132 C2.25969231,12.9826132 1.84615385,13.393929 1.84615385,13.9007288 L1.84615385,22.1637689 L0.923076923,22.1637689 C0.413538462,22.1637689 0,22.5750846 0,23.0818844 C0,23.5886842 0.413538462,24 0.923076923,24 L2.76923077,24 L21.2307692,24 L23.0769231,24 C23.5864615,24 24,23.5886842 24,23.0818844 C24,22.5750846 23.5864615,22.1637689 23.0769231,22.1637689 Z M11.0769231,9.31015092 L12.9230769,9.31015092 L12.9230769,12.9826132 L11.0769231,12.9826132 L11.0769231,9.31015092 Z M20.3076923,14.8188443 L20.3076923,16.7491823 C19.4007692,16.9401503 18.8266154,17.3914041 18.3456923,17.7742583 C17.8029231,18.2062317 17.4443077,18.4913066 16.614,18.4913066 C15.7836923,18.4913066 15.4250769,18.2062317 14.8823077,17.7742583 C14.2555385,17.2757216 13.4755385,16.6550755 11.9976923,16.6550755 C10.5203077,16.6550755 9.74076923,17.2761806 9.11446154,17.7742583 C8.57169231,18.2062317 8.21353846,18.4913066 7.38415385,18.4913066 C6.55430769,18.4913066 6.19569231,18.2062317 5.65338462,17.7742583 C5.17246154,17.3914041 4.59876923,16.9401503 3.69230769,16.7491823 L3.69230769,14.8188443 L20.3076923,14.8188443 Z M3.69230769,18.6675848 C3.97430769,18.7929076 4.212,18.979285 4.5,19.2083549 C5.12676923,19.7068916 5.90676923,20.3275377 7.38415385,20.3275377 C8.86153846,20.3275377 9.64107692,19.7064325 10.2678462,19.2083549 C10.8096923,18.7763815 11.1683077,18.4913066 11.9976923,18.4913066 C12.828,18.4913066 13.1870769,18.7763815 13.7293846,19.2083549 C14.3561538,19.7068916 15.1361538,20.3275377 16.614,20.3275377 C18.0918462,20.3275377 18.8718462,19.7068916 19.4986154,19.2083549 C19.7870769,18.978826 20.0252308,18.7929076 20.3076923,18.6666667 L20.3076923,22.1637689 L3.69230769,22.1637689 L3.69230769,18.6675848 Z" id="Shape"></path>
                <path d="M12,6.55580421 C13.5272308,6.55580421 14.7692308,5.32047972 14.7692308,3.80145751 C14.7692308,3.10460779 14.4516923,2.2172491 14.1544615,1.62001492 C13.6204615,0.544901589 12.9909231,0 12.2843077,0 C11.9381538,0 11.6053846,0.141389797 11.3473846,0.398003099 L11.1286154,0.614219315 C10.1958462,1.53463017 9.23076923,2.4857979 9.23076923,3.80145751 C9.23076923,5.32047972 10.4727692,6.55580421 12,6.55580421 Z M12.2889231,2.05566076 C12.5810769,2.50920985 12.9230769,3.35800769 12.9230769,3.80145751 C12.9230769,4.30779824 12.5090769,4.71957308 12,4.71957308 C11.4909231,4.71957308 11.0769231,4.30779824 11.0769231,3.80145751 C11.0769231,3.28823091 11.6483077,2.69007861 12.2889231,2.05566076 Z" id="Shape"></path>
            </g>
        </g>
    </g>
</svg>