<?xml version="1.0" encoding="UTF-8"?>
<svg width="19px" height="23px" viewBox="0 0 19 23" version="1.1" xmlns="http://www.w3.org/2000/svg" xmlns:xlink="http://www.w3.org/1999/xlink">
    <title>clock-alarm-bell-signal-alert copy</title>
    <g id="🚂-Playground" stroke="none" stroke-width="1" fill="none" fill-rule="evenodd">
        <g id="Homepage" transform="translate(-1169.000000, -2030.000000)" fill="#671219" fill-rule="nonzero">
            <g id="clock-alarm-bell-signal-alert-copy" transform="translate(1169.000000, 2030.000000)">
                <path d="M18.2515849,11.2121265 C18.2515849,6.21225457 14.2956147,2.14453144 9.43310469,2.14453144 C4.57059472,2.14453144 0.614624507,6.21225457 0.614624507,11.2121265 C0.614624507,14.0280681 1.86993516,16.5484061 3.83469255,18.2123098 L1.64462299,21.589989 C1.37433658,22.006645 1.48412665,22.5697426 1.88933582,22.847211 C2.03924998,22.951035 2.20944665,23 2.3774387,23 C2.66227561,23 2.94226235,22.8585455 3.11201809,22.5960386 L5.30208765,19.2179061 C6.53579302,19.8934419 7.94101784,20.2797215 9.43310469,20.2797215 C10.9256325,20.2797215 12.3304164,19.8934419 13.5636808,19.2179061 L15.7541913,22.5960386 C15.9243879,22.8585455 16.2034928,23 16.4887707,23 C16.6567627,23 16.8269594,22.951035 16.9768736,22.8476644 C17.3820827,22.570196 17.4914319,22.0070983 17.2215864,21.5904424 L15.0315168,18.2127632 C16.9962742,16.5484061 18.2515849,14.0280681 18.2515849,11.2121265 Z M2.37832054,11.2121265 C2.37832054,7.2124103 5.54327308,3.95805045 9.43310469,3.95805045 C13.3229363,3.95805045 16.4878888,7.2124103 16.4878888,11.2121265 C16.4878888,15.2118426 13.3229363,18.4662025 9.43310469,18.4662025 C5.54327308,18.4662025 2.37832054,15.2118426 2.37832054,11.2121265 Z" id="Shape"></path>
                <path d="M12.0786487,10.305367 L10.3149527,10.305367 L10.3149527,6.67832895 C10.3149527,6.17779771 9.91988479,5.77156945 9.43310469,5.77156945 C8.94632458,5.77156945 8.55125667,6.17779771 8.55125667,6.67832895 L8.55125667,11.2121265 C8.55125667,11.7126577 8.94632458,12.118886 9.43310469,12.118886 L12.0786487,12.118886 C12.5654288,12.118886 12.9604968,11.7126577 12.9604968,11.2121265 C12.9604968,10.7115952 12.5654288,10.305367 12.0786487,10.305367 Z" id="Path"></path>
                <path d="M1.59391673,5.33632489 C2.77382938,3.6746881 4.39246142,2.44421546 6.27476601,1.7782006 C6.73509068,1.61543727 6.98024443,1.09903773 6.82151178,0.625709273 C6.66322006,0.151927433 6.16056669,-0.100605088 5.70068295,0.0635183815 C3.4757804,0.85103901 1.56349297,2.30457449 0.169732182,4.26680206 C-0.117309347,4.67121679 -0.0317700897,5.23884824 0.36197505,5.53399846 C0.518943998,5.6518772 0.701045613,5.70854967 0.881383533,5.70854967 C1.15299272,5.70809629 1.42107452,5.57933644 1.59391673,5.33632489 Z" id="Path"></path>
                <path d="M18.8300772,4.25320066 C17.4367573,2.2909731 15.5240289,0.837437617 13.2991264,0.049916989 C12.837479,-0.113753101 12.3365893,0.13832604 12.1782976,0.612107881 C12.0195649,1.08543634 12.2642777,1.6013825 12.7246024,1.76459921 C14.6073479,2.43106744 16.225539,3.66154009 17.4054517,5.3227235 C17.5782939,5.56573504 17.8463757,5.69449489 18.1184258,5.69449489 C18.2987637,5.69449489 18.4808654,5.63782242 18.6378343,5.51994369 C19.0315794,5.22524685 19.1175596,4.6576154 18.8300772,4.25320066 Z" id="Path"></path>
            </g>
        </g>
    </g>
</svg>