<?xml version="1.0" encoding="UTF-8"?>
<svg width="24px" height="24px" viewBox="0 0 24 24" version="1.1" xmlns="http://www.w3.org/2000/svg" xmlns:xlink="http://www.w3.org/1999/xlink">
    <title>1479877261 46 facebook</title>
    <g id="🚂-Playground" stroke="none" stroke-width="1" fill="none" fill-rule="evenodd">
        <g id="Homepage" transform="translate(-1518.000000, -26.000000)" fill="#FCC824" fill-rule="nonzero">
            <g id="1479877261-46-facebook" transform="translate(1518.000000, 26.000000)">
                <path d="M12.0004873,0 C5.37280702,0 0,5.37378168 0,12.0004873 C0,18.6281676 5.37280702,24 12.0004873,24 C18.6281676,24 24.0009747,18.6281676 24.0009747,12.0004873 C24.0009747,5.37378168 18.6276803,0 12.0004873,0 Z M15.1764133,11.9502924 L13.0984405,11.9502924 C13.0984405,15.2709552 13.0984405,19.3611111 13.0984405,19.3611111 L10.0185185,19.3611111 C10.0185185,19.3611111 10.0185185,15.3128655 10.0185185,11.9502924 L8.55360624,11.9502924 L8.55360624,9.33382066 L10.0185185,9.33382066 L10.0185185,7.63840156 C10.0185185,6.42495127 10.5945419,4.53070175 13.127193,4.53070175 L15.4078947,4.53947368 L15.4078947,7.08089669 C15.4078947,7.08089669 14.0209552,7.08089669 13.7519493,7.08089669 C13.4814815,7.08089669 13.0989279,7.21588694 13.0989279,7.79288499 L13.0989279,9.33430799 L15.4468811,9.33430799 L15.1764133,11.9502924 Z" id="Shape"></path>
            </g>
        </g>
    </g>
</svg>