<?xml version="1.0" encoding="UTF-8"?>
<svg width="24px" height="22px" viewBox="0 0 24 22" version="1.1" xmlns="http://www.w3.org/2000/svg" xmlns:xlink="http://www.w3.org/1999/xlink">
    <title>pulse-smartwatch-health-medical-heart copy</title>
    <g id="🚂-Playground" stroke="none" stroke-width="1" fill="none" fill-rule="evenodd">
        <g id="Homepage" transform="translate(-1133.000000, -2031.000000)" fill="#671219" fill-rule="nonzero">
            <g id="pulse-smartwatch-health-medical-heart-copy" transform="translate(1133.000000, 2031.000000)">
                <path d="M21.952405,2.05088622 C20.6302839,0.728294993 18.8718441,0 17.0015036,0 C15.131163,0 13.372253,0.728294993 12.0496618,2.05088622 L12.0002938,2.10025418 L11.9509259,2.05135639 C10.6283347,0.728765164 8.86989484,0.000470171073 6.99955431,0.000470171073 C5.12921378,0.000470171073 3.37077397,0.728765164 2.04771257,2.05135639 C-0.682570856,4.78163982 -0.682570856,9.22381612 2.04771257,11.9545697 L11.3350018,21.2413888 C11.5113159,21.4177029 11.750633,21.516909 11.9998237,21.516909 C12.2490143,21.516909 12.4883314,21.4177029 12.6646456,21.2413888 L21.9514646,11.9540995 C24.6826884,9.22381612 24.6826884,4.78163982 21.952405,2.05088622 Z M20.6227612,10.6239856 L12.000764,19.2469231 L3.37782653,10.6244557 C1.38100999,8.62716903 1.38100999,5.37781674 3.37782653,3.38100019 C4.3454386,2.41338812 5.63182666,1.88115446 7.00002448,1.88115446 C8.36822231,1.88115446 9.65414019,2.41385829 10.6217523,3.38100019 L11.3364123,4.09566022 C11.6890406,4.4487587 12.3143681,4.4487587 12.6665263,4.09566022 L13.3802459,3.38147036 C14.347858,2.41432846 15.6337759,1.88162464 17.0019737,1.88162464 C18.3697014,1.88162464 19.6560894,2.41432846 20.6232313,3.38147036 C22.6195777,5.37781674 22.6195777,8.62716903 20.6227612,10.6239856 Z" id="Shape"></path>
                <path d="M16.7020046,8.87777021 L15.1057738,8.87777021 L12.5217136,7.1550634 C12.2969718,7.00507882 12.0186305,6.95900206 11.7586259,7.02858738 C11.497681,7.09770252 11.2795216,7.27542719 11.1591578,7.51709512 L9.7547568,10.3258971 L7.82000284,9.03621786 C7.38885596,8.74800299 6.80396315,8.86507559 6.51621845,9.29716281 C6.22847375,9.72925002 6.34507618,10.3132025 6.77716339,10.6009472 L9.59818984,12.4816315 C9.75381646,12.5850691 9.93530249,12.6391388 10.1196096,12.6391388 C10.200479,12.6391388 10.2813484,12.628795 10.3608073,12.6076373 C10.6217523,12.5389924 10.8399116,12.3607975 10.9602754,12.1195998 L12.3646764,9.31079777 L14.2994304,10.600477 C14.4541167,10.7034445 14.6356027,10.7584545 14.8213203,10.7584545 L16.7020046,10.7584545 C17.2210734,10.7584545 17.6423467,10.3371812 17.6423467,9.81811235 C17.6423467,9.29904349 17.2210734,8.87777021 16.7020046,8.87777021 Z" id="Path"></path>
            </g>
        </g>
    </g>
</svg>