<?xml version="1.0" encoding="UTF-8"?>
<svg width="163px" height="27px" viewBox="0 0 163 27" version="1.1" xmlns="http://www.w3.org/2000/svg" xmlns:xlink="http://www.w3.org/1999/xlink">
    <title>Hrdý na svůj klub Copy 2</title>
    <g id="🚂-Playground" stroke="none" stroke-width="1" fill="none" fill-rule="evenodd">
        <g id="Homepage" transform="translate(-764.000000, -35.000000)" fill="#FCC824" fill-rule="nonzero">
            <g id="Hrdý-na-svůj-klub-Copy-2" transform="translate(764.283273, 35.385176)">
                <path d="M1.35672727,21.9388235 C1.35672727,21.9388235 1.32872727,21.9248235 1.27272727,21.8968235 C1.21672727,21.8688235 1.14672727,21.8454902 1.06272727,21.8268235 C0.978727273,21.8081569 0.880727273,21.7988235 0.768727273,21.7988235 C0.470060606,21.7241569 0.255393939,21.5608235 0.124727273,21.3088235 C-0.00593939394,21.0568235 -0.0339393939,20.7814902 0.0407272727,20.4828235 C0.115393939,20.4081569 0.171393939,20.2494902 0.208727273,20.0068235 C0.246060606,19.7641569 0.264727273,19.5681569 0.264727273,19.4188235 C0.339393939,19.2694902 0.386060606,19.1621569 0.404727273,19.0968235 C0.423393939,19.0314902 0.470060606,18.8494902 0.544727273,18.5508235 C0.600727273,18.2334902 0.698727273,17.7901569 0.838727273,17.2208235 C0.978727273,16.6514902 1.13739394,16.0401569 1.31472727,15.3868235 C1.49206061,14.7334902 1.66472727,14.1081569 1.83272727,13.5108235 C2.00072727,12.9134902 2.15472727,12.4094902 2.29472727,11.9988235 C2.43472727,11.5881569 2.53272727,11.3548235 2.58872727,11.2988235 C2.58872727,11.2988235 2.58872727,11.2661569 2.58872727,11.2008235 C2.58872727,11.1354902 2.58872727,11.0654902 2.58872727,10.9908235 C2.58872727,10.9908235 2.60272727,10.9021569 2.63072727,10.7248235 C2.65872727,10.5474902 2.74739394,10.3468235 2.89672727,10.1228235 C2.97139394,9.9174902 3.03672727,9.6934902 3.09272727,9.45082353 C3.14872727,9.20815686 3.17672727,9.0494902 3.17672727,8.97482353 C3.25139394,8.8814902 3.35872727,8.65282353 3.49872727,8.28882353 C3.63872727,7.92482353 3.77406061,7.5654902 3.90472727,7.21082353 C4.01672727,6.91215686 4.14272727,6.59482353 4.28272727,6.25882353 C4.42272727,5.92282353 4.54406061,5.6334902 4.64672727,5.39082353 C4.74939394,5.14815686 4.80072727,5.02682353 4.80072727,5.02682353 C4.80072727,4.95215686 4.80072727,4.91015686 4.80072727,4.90082353 C4.80072727,4.8914902 4.80072727,4.88682353 4.80072727,4.88682353 C4.87539394,4.81215686 5.05739394,4.43415686 5.34672727,3.75282353 C5.63606061,3.0714902 6.03272727,2.1894902 6.53672727,1.10682353 C6.61139394,0.957490196 6.70472727,0.789490196 6.81672727,0.602823529 C6.92872727,0.416156863 6.98472727,0.285490196 6.98472727,0.210823529 C7.07806061,0.0614901961 7.20872727,-0.00850980392 7.37672727,0.000823529412 C7.54472727,0.0101568627 7.71739394,0.0708235294 7.89472727,0.182823529 C8.07206061,0.294823529 8.20739394,0.453490196 8.30072727,0.658823529 L8.58072727,1.10682353 L7.57272727,3.12282353 C7.27406061,3.6454902 7.02672727,4.1214902 6.83072727,4.55082353 C6.63472727,4.98015686 6.53672727,5.23215686 6.53672727,5.30682353 C6.53672727,5.30682353 6.48072727,5.45615686 6.36872727,5.75482353 C6.25672727,6.0534902 6.12606061,6.40815686 5.97672727,6.81882353 C5.82739394,7.2294902 5.69672727,7.60282353 5.58472727,7.93882353 C5.37939394,8.5174902 5.18806061,8.9934902 5.01072727,9.36682353 C4.83339394,9.74015686 4.74472727,9.96415686 4.74472727,10.0388235 C4.74472727,10.0014902 4.95006061,9.9734902 5.36072727,9.95482353 C5.77139394,9.93615686 6.29406061,9.92682353 6.92872727,9.92682353 C7.56339394,9.92682353 8.21206061,9.92215686 8.87472727,9.91282353 C9.53739394,9.9034902 10.1253939,9.89415686 10.6387273,9.88482353 C11.1520606,9.8754902 11.5020606,9.85215686 11.6887273,9.81482353 L13.1447273,9.67482353 L14.0967273,6.79082353 C14.2460606,6.26815686 14.4420606,5.6334902 14.6847273,4.88682353 C14.9273939,4.14015686 15.1420606,3.5054902 15.3287273,2.98282353 C15.6273939,2.12415686 15.8607273,1.59215686 16.0287273,1.38682353 C16.1967273,1.1814902 16.3927273,1.07882353 16.6167273,1.07882353 C16.6727273,1.07882353 16.7520606,1.09282353 16.8547273,1.12082353 C16.9573939,1.14882353 17.0600606,1.1954902 17.1627273,1.26082353 C17.2653939,1.32615686 17.3353939,1.41482353 17.3727273,1.52682353 C17.5967273,1.73215686 17.7040606,1.9654902 17.6947273,2.22682353 C17.6853939,2.48815686 17.5313939,2.8334902 17.2327273,3.26282353 C16.9340606,3.76682353 16.6867273,4.31282353 16.4907273,4.90082353 C16.2947273,5.48882353 16.1220606,5.9694902 15.9727273,6.34282353 C15.9727273,6.56682353 15.9447273,6.74882353 15.8887273,6.88882353 C15.8327273,7.02882353 15.7673939,7.13615686 15.6927273,7.21082353 C15.6553939,7.24815686 15.5807273,7.38815686 15.4687273,7.63082353 C15.3567273,7.8734902 15.2540606,8.11615686 15.1607273,8.35882353 C15.0673939,8.6014902 15.0207273,8.75082353 15.0207273,8.80682353 C15.0207273,8.9374902 14.9927273,9.09615686 14.9367273,9.28282353 C14.8807273,9.4694902 14.8153939,9.60015686 14.7407273,9.67482353 C14.7033939,9.78682353 14.6193939,10.0668235 14.4887273,10.5148235 C14.3580606,10.9628235 14.2087273,11.4901569 14.0407273,12.0968235 C13.8727273,12.7034902 13.6953939,13.2914902 13.5087273,13.8608235 C13.3220606,14.4301569 13.1540606,14.9014902 13.0047273,15.2748235 C13.0047273,15.4054902 12.9580606,15.5688235 12.8647273,15.7648235 C12.7713939,15.9608235 12.7247273,16.1334902 12.7247273,16.2828235 C12.6500606,16.5068235 12.5567273,16.7868235 12.4447273,17.1228235 C12.3327273,17.4588235 12.2767273,17.6734902 12.2767273,17.7668235 C12.1833939,18.1961569 12.0853939,18.6348235 11.9827273,19.0828235 C11.8800606,19.5308235 11.7960606,19.9181569 11.7307273,20.2448235 C11.6653939,20.5714902 11.6327273,20.7628235 11.6327273,20.8188235 C11.5580606,20.8934902 11.4460606,20.9028235 11.2967273,20.8468235 C11.1473939,20.7908235 10.9700606,20.7254902 10.7647273,20.6508235 C10.4100606,20.4454902 10.2000606,20.2261569 10.1347273,19.9928235 C10.0693939,19.7594902 10.1393939,19.4281569 10.3447273,18.9988235 C10.4380606,18.8494902 10.5547273,18.4808235 10.6947273,17.8928235 C10.8347273,17.3048235 10.9793939,16.7214902 11.1287273,16.1428235 C11.2407273,15.8628235 11.3620606,15.4848235 11.4927273,15.0088235 C11.6233939,14.5328235 11.7540606,14.0474902 11.8847273,13.5528235 C12.0153939,13.0581569 12.1273939,12.6381569 12.2207273,12.2928235 C12.3140606,11.9474902 12.3793939,11.7561569 12.4167273,11.7188235 C12.4167273,11.6441569 12.4167273,11.5788235 12.4167273,11.5228235 C12.4167273,11.4668235 12.4167273,11.4388235 12.4167273,11.4388235 C12.3793939,11.4014902 12.1460606,11.3688235 11.7167273,11.3408235 C11.2873939,11.3128235 10.7553939,11.3034902 10.1207273,11.3128235 C9.48606061,11.3221569 8.82806061,11.3408235 8.14672727,11.3688235 C7.46539394,11.3968235 6.85406061,11.4481569 6.31272727,11.5228235 C6.10739394,11.5228235 5.87406061,11.5228235 5.61272727,11.5228235 C5.35139394,11.5228235 5.14606061,11.5228235 4.99672727,11.5228235 C4.79139394,11.5228235 4.61872727,11.5228235 4.47872727,11.5228235 C4.33872727,11.5228235 4.26872727,11.5228235 4.26872727,11.5228235 C4.25006061,11.5788235 4.18472727,11.7748235 4.07272727,12.1108235 C3.96072727,12.4468235 3.83006061,12.8528235 3.68072727,13.3288235 C3.53139394,13.8048235 3.37739394,14.2901569 3.21872727,14.7848235 C3.06006061,15.2794902 2.92939394,15.7274902 2.82672727,16.1288235 C2.72406061,16.5301569 2.65406061,16.8148235 2.61672727,16.9828235 C2.54206061,17.3188235 2.44406061,17.7388235 2.32272727,18.2428235 C2.20139394,18.7468235 2.07072727,19.2648235 1.93072727,19.7968235 C1.79072727,20.3288235 1.66939394,20.7908235 1.56672727,21.1828235 C1.46406061,21.5748235 1.39406061,21.8268235 1.35672727,21.9388235 Z" id="Path"></path>
                <path d="M16.8127273,18.6348235 C16.6447273,18.5041569 16.5280606,18.3734902 16.4627273,18.2428235 C16.3973939,18.1121569 16.3927273,17.8601569 16.4487273,17.4868235 C16.5047273,16.9641569 16.5793939,16.5021569 16.6727273,16.1008235 C16.7660606,15.6994902 16.8780606,15.2374902 17.0087273,14.7148235 C17.0460606,14.4908235 17.1533939,14.1081569 17.3307273,13.5668235 C17.5080606,13.0254902 17.7273939,12.4374902 17.9887273,11.8028235 C18.2500606,11.1681569 18.5113939,10.5661569 18.7727273,9.99682353 C19.0340606,9.4274902 19.2580606,9.00282353 19.4447273,8.72282353 C19.5940606,8.61082353 19.7760606,8.56415686 19.9907273,8.58282353 C20.2053939,8.6014902 20.3873939,8.6854902 20.5367273,8.83482353 C20.7420606,9.00282353 20.7747273,9.29682353 20.6347273,9.71682353 C20.4947273,10.1368235 20.2100606,10.7948235 19.7807273,11.6908235 C19.5567273,12.1948235 19.3887273,12.5728235 19.2767273,12.8248235 C19.1647273,13.0768235 19.1180606,13.2261569 19.1367273,13.2728235 C19.1553939,13.3194902 19.2393939,13.2961569 19.3887273,13.2028235 C19.5007273,12.9974902 19.7060606,12.7594902 20.0047273,12.4888235 C20.3033939,12.2181569 20.6207273,11.9521569 20.9567273,11.6908235 C21.2927273,11.4294902 21.6100606,11.1961569 21.9087273,10.9908235 C22.2073939,10.7854902 22.4127273,10.6548235 22.5247273,10.5988235 C22.6740606,10.5054902 22.8467273,10.4261569 23.0427273,10.3608235 C23.2387273,10.2954902 23.3740606,10.2441569 23.4487273,10.2068235 C23.8780606,10.0014902 24.3167273,9.92682353 24.7647273,9.98282353 C25.2127273,10.0388235 25.4927273,10.2068235 25.6047273,10.4868235 C25.6233939,10.6361569 25.6840606,10.7481569 25.7867273,10.8228235 C25.8893939,10.8974902 25.9407273,10.9348235 25.9407273,10.9348235 C26.0153939,10.9348235 26.0573939,10.9628235 26.0667273,11.0188235 C26.0760606,11.0748235 26.0807273,11.1028235 26.0807273,11.1028235 C26.0807273,11.2334902 25.9827273,11.3128235 25.7867273,11.3408235 C25.5907273,11.3688235 25.3433939,11.3921569 25.0447273,11.4108235 C24.8020606,11.4294902 24.5873939,11.4761569 24.4007273,11.5508235 C24.2140606,11.6254902 23.9900606,11.7188235 23.7287273,11.8308235 C23.0193939,12.2414902 22.3427273,12.6428235 21.6987273,13.0348235 C21.0547273,13.4268235 20.4340606,13.9494902 19.8367273,14.6028235 C19.7060606,14.7521569 19.5753939,14.9294902 19.4447273,15.1348235 C19.3140606,15.3401569 19.1740606,15.5641569 19.0247273,15.8068235 C18.9313939,15.9001569 18.8380606,16.1054902 18.7447273,16.4228235 C18.6513939,16.7401569 18.5720606,17.0434902 18.5067273,17.3328235 C18.4413939,17.6221569 18.4087273,17.7948235 18.4087273,17.8508235 C18.4087273,17.8508235 18.3807273,17.9394902 18.3247273,18.1168235 C18.2687273,18.2941569 18.1753939,18.4668235 18.0447273,18.6348235 C17.8207273,18.9334902 17.6340606,19.0828235 17.4847273,19.0828235 C17.3353939,19.0828235 17.1113939,18.9334902 16.8127273,18.6348235 Z" id="Path"></path>
                <path d="M33.5287273,19.3348235 C33.4540606,19.3348235 33.3467273,19.3208235 33.2067273,19.2928235 C33.0667273,19.2648235 32.9500606,19.1854902 32.8567273,19.0548235 C32.5767273,18.7188235 32.3993939,18.4388235 32.3247273,18.2148235 C32.2500606,17.9908235 32.2407273,17.6641569 32.2967273,17.2348235 C32.3340606,16.9548235 32.3573939,16.7074902 32.3667273,16.4928235 C32.3760606,16.2781569 32.3900606,16.0961569 32.4087273,15.9468235 C32.3340606,15.8721569 32.1987273,15.9234902 32.0027273,16.1008235 C31.8067273,16.2781569 31.5407273,16.4974902 31.2047273,16.7588235 C30.5700606,17.4868235 30.0053939,18.0421569 29.5107273,18.4248235 C29.0160606,18.8074902 28.5727273,19.0594902 28.1807273,19.1808235 C27.7887273,19.3021569 27.4153939,19.3441569 27.0607273,19.3068235 C26.7433939,19.2694902 26.4913939,19.1341569 26.3047273,18.9008235 C26.1180606,18.6674902 26.0013939,18.3641569 25.9547273,17.9908235 C25.9080606,17.6174902 25.9033939,17.2161569 25.9407273,16.7868235 C26.0153939,16.1708235 26.1507273,15.5828235 26.3467273,15.0228235 C26.5427273,14.4628235 26.8647273,13.8374902 27.3127273,13.1468235 C27.5180606,12.7734902 27.7933939,12.4048235 28.1387273,12.0408235 C28.4840606,11.6768235 28.8667273,11.3501569 29.2867273,11.0608235 C29.7067273,10.7714902 30.1127273,10.5614902 30.5047273,10.4308235 C30.9340606,10.2628235 31.3727273,10.1648235 31.8207273,10.1368235 C32.2687273,10.1088235 32.6700606,10.1508235 33.0247273,10.2628235 C33.2487273,10.3748235 33.4307273,10.4308235 33.5707273,10.4308235 C33.7107273,10.4308235 33.8180606,10.3374902 33.8927273,10.1508235 C33.9860606,10.0014902 34.0793939,9.77282353 34.1727273,9.46482353 C34.2660606,9.15682353 34.3780606,8.89082353 34.5087273,8.66682353 L35.1247273,6.84682353 C35.3300606,6.34282353 35.5540606,5.81082353 35.7967273,5.25082353 C36.0393939,4.69082353 36.3287273,4.0094902 36.6647273,3.20682353 C36.9820606,2.6094902 37.2433939,2.2594902 37.4487273,2.15682353 C37.6540606,2.05415686 37.8873939,2.1334902 38.1487273,2.39482353 C38.3540606,2.6374902 38.4287273,2.91282353 38.3727273,3.22082353 C38.3167273,3.52882353 38.1487273,4.01882353 37.8687273,4.69082353 C37.7380606,4.89615686 37.6260606,5.0874902 37.5327273,5.26482353 C37.4393939,5.44215686 37.3087273,5.7174902 37.1407273,6.09082353 C36.8980606,6.6694902 36.6740606,7.1874902 36.4687273,7.64482353 C36.2633939,8.10215686 36.0487273,8.62015686 35.8247273,9.19882353 C35.7500606,9.4974902 35.6520606,9.84282353 35.5307273,10.2348235 C35.4093939,10.6268235 35.3113939,10.9814902 35.2367273,11.2988235 C35.1807273,11.5974902 35.1200606,11.8728235 35.0547273,12.1248235 C34.9893939,12.3768235 34.9193939,12.5028235 34.8447273,12.5028235 C34.6953939,12.6708235 34.5553939,12.9648235 34.4247273,13.3848235 C34.2940606,13.8048235 34.1867273,14.2388235 34.1027273,14.6868235 C34.0187273,15.1348235 33.9487273,15.5081569 33.8927273,15.8068235 C33.8553939,16.0308235 33.8273939,16.3201569 33.8087273,16.6748235 C33.7900606,17.0294902 33.7807273,17.3701569 33.7807273,17.6968235 C33.7807273,18.0234902 33.7807273,18.2521569 33.7807273,18.3828235 C33.7807273,18.7934902 33.7713939,19.0548235 33.7527273,19.1668235 C33.7340606,19.2788235 33.6593939,19.3348235 33.5287273,19.3348235 Z M27.5647273,17.5708235 C27.9567273,17.5708235 28.3720606,17.4028235 28.8107273,17.0668235 C29.2493939,16.7308235 29.6927273,16.3574902 30.1407273,15.9468235 C30.4207273,15.6854902 30.7240606,15.3401569 31.0507273,14.9108235 C31.3773939,14.4814902 31.6947273,14.0521569 32.0027273,13.6228235 C32.3107273,13.1934902 32.5580606,12.8154902 32.7447273,12.4888235 C32.9313939,12.1621569 33.0247273,11.9614902 33.0247273,11.8868235 C33.0247273,11.7934902 32.9407273,11.7281569 32.7727273,11.6908235 C32.6047273,11.6534902 32.4133939,11.6301569 32.1987273,11.6208235 C31.9840606,11.6114902 31.8113939,11.6254902 31.6807273,11.6628235 C31.2700606,11.7561569 30.8640606,11.9428235 30.4627273,12.2228235 C30.0613939,12.5028235 29.6273939,12.9228235 29.1607273,13.4828235 C28.6753939,14.0801569 28.2787273,14.6961569 27.9707273,15.3308235 C27.6627273,15.9654902 27.4713939,16.4974902 27.3967273,16.9268235 C27.3220606,17.3561569 27.3780606,17.5708235 27.5647273,17.5708235 Z" id="Shape"></path>
                <path d="M36.7767273,25.1868235 C36.3287273,25.3174902 35.8387273,25.3408235 35.3067273,25.2568235 C34.7747273,25.1728235 34.3080606,25.0094902 33.9067273,24.7668235 C33.5053939,24.5241569 33.2767273,24.2534902 33.2207273,23.9548235 C33.2020606,23.8428235 33.2347273,23.7214902 33.3187273,23.5908235 C33.4027273,23.4601569 33.5053939,23.3714902 33.6267273,23.3248235 C33.7480606,23.2781569 33.8553939,23.3108235 33.9487273,23.4228235 C34.0980606,23.5161569 34.3687273,23.6328235 34.7607273,23.7728235 C35.1527273,23.9128235 35.5913939,23.9361569 36.0767273,23.8428235 C36.5060606,23.7494902 36.9307273,23.4974902 37.3507273,23.0868235 C37.7707273,22.6761569 38.1113939,22.2934902 38.3727273,21.9388235 C38.5220606,21.7148235 38.7740606,21.3134902 39.1287273,20.7348235 C39.4833939,20.1561569 39.8520606,19.5168235 40.2347273,18.8168235 C40.6173939,18.1168235 40.9393939,17.4681569 41.2007273,16.8708235 C41.2567273,16.7214902 41.3220606,16.5441569 41.3967273,16.3388235 C41.4713939,16.1334902 41.5647273,15.9654902 41.6767273,15.8348235 C41.7887273,15.6108235 41.8867273,15.4008235 41.9707273,15.2048235 C42.0547273,15.0088235 42.1060606,14.8734902 42.1247273,14.7988235 C42.1433939,14.7054902 42.2273939,14.5188235 42.3767273,14.2388235 C42.5260606,13.9588235 42.6660606,13.6788235 42.7967273,13.3988235 C42.8900606,13.1188235 43.0300606,12.7081569 43.2167273,12.1668235 C43.4033939,11.6254902 43.5900606,11.1868235 43.7767273,10.8508235 C44.0007273,10.4214902 44.1827273,10.0714902 44.3227273,9.80082353 C44.4627273,9.53015686 44.6167273,9.36682353 44.7847273,9.31082353 L44.7847273,9.31082353 L44.7847273,9.31082353 C44.9527273,9.18015686 45.0693939,9.11482353 45.1347273,9.11482353 C45.2000606,9.11482353 45.3353939,9.17082353 45.5407273,9.28282353 C45.7647273,9.50682353 45.9047273,9.72615686 45.9607273,9.94082353 C46.0167273,10.1554902 45.9933939,10.4168235 45.8907273,10.7248235 C45.7880606,11.0328235 45.5967273,11.4481569 45.3167273,11.9708235 C45.1673939,12.4188235 45.0040606,12.8248235 44.8267273,13.1888235 C44.6493939,13.5528235 44.5140606,13.7908235 44.4207273,13.9028235 C44.3273939,14.1268235 44.2200606,14.3741569 44.0987273,14.6448235 C43.9773939,14.9154902 43.8700606,15.1628235 43.7767273,15.3868235 C43.4407273,16.1334902 43.1513939,16.7401569 42.9087273,17.2068235 C42.6660606,17.6734902 42.4513939,18.1028235 42.2647273,18.4948235 C42.0780606,18.8868235 41.8820606,19.3441569 41.6767273,19.8668235 C41.2473939,20.5574902 40.8320606,21.2154902 40.4307273,21.8408235 C40.0293939,22.4661569 39.6047273,23.0494902 39.1567273,23.5908235 C38.9700606,23.7588235 38.7367273,23.9548235 38.4567273,24.1788235 C38.1767273,24.4028235 37.8920606,24.6081569 37.6027273,24.7948235 C37.3133939,24.9814902 37.0380606,25.1121569 36.7767273,25.1868235 Z M40.5567273,18.4668235 C40.2767273,18.4294902 40.0013939,18.2614902 39.7307273,17.9628235 C39.4600606,17.6641569 39.2500606,17.3468235 39.1007273,17.0108235 C38.9513939,16.6748235 38.8953939,16.4321569 38.9327273,16.2828235 C38.9327273,16.1894902 38.9327273,16.1148235 38.9327273,16.0588235 C38.9327273,16.0028235 38.9327273,15.9748235 38.9327273,15.9748235 C38.8207273,15.9748235 38.7227273,15.8348235 38.6387273,15.5548235 C38.5547273,15.2748235 38.4940606,14.9108235 38.4567273,14.4628235 C38.4193939,14.0148235 38.3960606,13.5388235 38.3867273,13.0348235 C38.3773939,12.5308235 38.3913939,12.0548235 38.4287273,11.6068235 C38.5033939,11.2894902 38.5407273,10.9394902 38.5407273,10.5568235 C38.5407273,10.1741569 38.5500606,9.87082353 38.5687273,9.64682353 C38.5500606,9.34815686 38.5780606,9.1474902 38.6527273,9.04482353 C38.7273939,8.94215686 38.8020606,8.86282353 38.8767273,8.80682353 L38.8767273,8.80682353 L38.8767273,8.80682353 C39.3993939,8.58282353 39.7493939,8.71815686 39.9267273,9.21282353 C40.1040606,9.7074902 40.1460606,10.6268235 40.0527273,11.9708235 C40.0153939,12.7174902 40.0153939,13.4641569 40.0527273,14.2108235 C40.0900606,14.9574902 40.1973939,15.6108235 40.3747273,16.1708235 C40.5520606,16.7308235 40.7993939,17.1134902 41.1167273,17.3188235 C41.2473939,17.3934902 41.3127273,17.4961569 41.3127273,17.6268235 C41.3127273,17.7574902 41.2753939,17.8928235 41.2007273,18.0328235 C41.1260606,18.1728235 41.0280606,18.2848235 40.9067273,18.3688235 C40.7853939,18.4528235 40.6687273,18.4854902 40.5567273,18.4668235 Z M43.1047273,7.18282353 C42.9740606,7.05215686 42.8760606,6.85615686 42.8107273,6.59482353 C42.7453939,6.3334902 42.7220606,6.1654902 42.7407273,6.09082353 C42.7593939,5.9974902 42.8853939,5.81082353 43.1187273,5.53082353 C43.3520606,5.25082353 43.6273939,4.94282353 43.9447273,4.60682353 C44.2620606,4.27082353 44.5653939,3.97215686 44.8547273,3.71082353 C45.1440606,3.4494902 45.3540606,3.29082353 45.4847273,3.23482353 C45.6900606,3.10415686 45.8860606,3.1274902 46.0727273,3.30482353 C46.2593939,3.48215686 46.4460606,3.72015686 46.6327273,4.01882353 C46.6887273,4.18682353 46.6187273,4.3874902 46.4227273,4.62082353 C46.2267273,4.85415686 45.9700606,5.1014902 45.6527273,5.36282353 C45.3353939,5.62415686 45.0227273,5.88082353 44.7147273,6.13282353 C44.4067273,6.38482353 44.1780606,6.6134902 44.0287273,6.81882353 C43.8420606,7.1174902 43.6973939,7.29482353 43.5947273,7.35082353 C43.4920606,7.40682353 43.3287273,7.35082353 43.1047273,7.18282353 Z" id="Shape"></path>
                <path d="M63.6007273,18.3268235 C63.2273939,18.3268235 62.9193939,18.2474902 62.6767273,18.0888235 C62.4340606,17.9301569 62.2287273,17.6641569 62.0607273,17.2908235 C61.9860606,17.0294902 61.9253939,16.7354902 61.8787273,16.4088235 C61.8320606,16.0821569 61.8087273,15.7741569 61.8087273,15.4848235 C61.8087273,15.1954902 61.8367273,15.0041569 61.8927273,14.9108235 C61.9673939,14.8361569 62.0000606,14.7008235 61.9907273,14.5048235 C61.9813939,14.3088235 61.9767273,14.0988235 61.9767273,13.8748235 C61.9580606,13.5014902 61.8693939,13.2914902 61.7107273,13.2448235 C61.5520606,13.1981569 61.3233939,13.2588235 61.0247273,13.4268235 C60.6887273,13.6321569 60.2500606,13.9074902 59.7087273,14.2528235 C59.1673939,14.5981569 58.6027273,14.9761569 58.0147273,15.3868235 C57.4267273,15.7974902 56.8713939,16.2268235 56.3487273,16.6748235 C55.9380606,17.1228235 55.6907273,17.4634902 55.6067273,17.6968235 C55.5227273,17.9301569 55.4060606,18.0468235 55.2567273,18.0468235 C55.1073939,18.1214902 54.9813939,18.1261569 54.8787273,18.0608235 C54.7760606,17.9954902 54.6313939,17.8881569 54.4447273,17.7388235 C54.3140606,17.5894902 54.1833939,17.4448235 54.0527273,17.3048235 C53.9220606,17.1648235 53.8380606,17.0574902 53.8007273,16.9828235 C53.8007273,16.8894902 53.8287273,16.6934902 53.8847273,16.3948235 C53.9407273,16.0961569 54.0107273,15.7974902 54.0947273,15.4988235 C54.1787273,15.2001569 54.2393939,15.0041569 54.2767273,14.9108235 C54.3700606,14.9108235 54.4493939,14.8174902 54.5147273,14.6308235 C54.5800606,14.4441569 54.6873939,14.2388235 54.8367273,14.0148235 C54.8740606,13.7908235 54.9720606,13.4874902 55.1307273,13.1048235 C55.2893939,12.7221569 55.4340606,12.3814902 55.5647273,12.0828235 C55.8260606,11.6348235 56.0080606,11.2614902 56.1107273,10.9628235 C56.2133939,10.6641569 56.2833939,10.2908235 56.3207273,9.84282353 C56.3020606,9.76815686 56.3207273,9.69815686 56.3767273,9.63282353 C56.4327273,9.5674902 56.4980606,9.53482353 56.5727273,9.53482353 L56.5727273,9.53482353 L56.5727273,9.53482353 C56.7220606,9.3854902 56.8993939,9.3434902 57.1047273,9.40882353 C57.3100606,9.47415686 57.4967273,9.61882353 57.6647273,9.84282353 C58.0007273,10.2908235 58.1360606,10.7528235 58.0707273,11.2288235 C58.0053939,11.7048235 57.7020606,12.3814902 57.1607273,13.2588235 C57.0300606,13.5574902 56.9320606,13.7861569 56.8667273,13.9448235 C56.8013939,14.1034902 56.7687273,14.2294902 56.7687273,14.3228235 C56.7687273,14.3228235 56.8667273,14.2574902 57.0627273,14.1268235 C57.2587273,13.9961569 57.4827273,13.8421569 57.7347273,13.6648235 C57.9867273,13.4874902 58.1873939,13.3521569 58.3367273,13.2588235 C58.4300606,13.1654902 58.6447273,12.9974902 58.9807273,12.7548235 C59.3167273,12.5121569 59.6760606,12.2741569 60.0587273,12.0408235 C60.4413939,11.8074902 60.7260606,11.6721569 60.9127273,11.6348235 C61.0620606,11.5601569 61.2207273,11.4901569 61.3887273,11.4248235 C61.5567273,11.3594902 61.6780606,11.3268235 61.7527273,11.3268235 C61.9020606,11.3268235 62.0933939,11.4061569 62.3267273,11.5648235 C62.5600606,11.7234902 62.7793939,11.9101569 62.9847273,12.1248235 C63.1900606,12.3394902 63.3113939,12.5214902 63.3487273,12.6708235 C63.3487273,12.7454902 63.3533939,12.8201569 63.3627273,12.8948235 C63.3720606,12.9694902 63.3860606,13.0441569 63.4047273,13.1188235 C63.4793939,13.3614902 63.5213939,13.6881569 63.5307273,14.0988235 C63.5400606,14.5094902 63.5260606,14.8828235 63.4887273,15.2188235 C63.4513939,15.5548235 63.3860606,15.7508235 63.2927273,15.8068235 C63.2927273,15.8068235 63.2973939,15.8301569 63.3067273,15.8768235 C63.3160606,15.9234902 63.3580606,15.9468235 63.4327273,15.9468235 C63.4327273,16.0214902 63.4327273,16.0634902 63.4327273,16.0728235 C63.4327273,16.0821569 63.4327273,16.0868235 63.4327273,16.0868235 C63.3393939,16.0868235 63.3020606,16.1661569 63.3207273,16.3248235 C63.3393939,16.4834902 63.4000606,16.6561569 63.5027273,16.8428235 C63.6053939,17.0294902 63.7127273,17.1788235 63.8247273,17.2908235 C64.0487273,17.5148235 64.1420606,17.7248235 64.1047273,17.9208235 C64.0673939,18.1168235 63.8993939,18.2521569 63.6007273,18.3268235 Z" id="Path"></path>
                <path d="M66.4847273,18.6068235 C66.4100606,18.4574902 66.3167273,18.3408235 66.2047273,18.2568235 C66.0927273,18.1728235 66.0367273,18.0934902 66.0367273,18.0188235 C66.0367273,17.9441569 66.0320606,17.8648235 66.0227273,17.7808235 C66.0133939,17.6968235 65.9713939,17.6174902 65.8967273,17.5428235 C65.8033939,17.4308235 65.8127273,17.1741569 65.9247273,16.7728235 C66.0367273,16.3714902 66.2233939,15.8768235 66.4847273,15.2888235 C66.7460606,14.7008235 67.0540606,14.0801569 67.4087273,13.4268235 C67.5580606,13.2774902 67.7073939,13.0814902 67.8567273,12.8388235 C68.0060606,12.5961569 68.1180606,12.4374902 68.1927273,12.3628235 C68.1927273,12.2881569 68.2207273,12.2181569 68.2767273,12.1528235 C68.3327273,12.0874902 68.3980606,12.0548235 68.4727273,12.0548235 L68.4727273,11.8868235 C68.4727273,11.7934902 68.5613939,11.6348235 68.7387273,11.4108235 C68.9160606,11.1868235 69.1353939,10.9394902 69.3967273,10.6688235 C69.6580606,10.3981569 69.9287273,10.1368235 70.2087273,9.88482353 C70.4887273,9.63282353 70.7220606,9.45082353 70.9087273,9.33882353 C71.3007273,9.0774902 71.7067273,8.91882353 72.1267273,8.86282353 C72.5467273,8.80682353 72.9060606,8.90015686 73.2047273,9.14282353 C73.2607273,9.19882353 73.3540606,9.29215686 73.4847273,9.42282353 C73.6153939,9.5534902 73.7693939,9.69815686 73.9467273,9.85682353 C74.1240606,10.0154902 74.3060606,10.1788235 74.4927273,10.3468235 L75.5287273,11.2708235 L75.0247273,12.6708235 C74.7820606,13.4174902 74.7213939,14.0708235 74.8427273,14.6308235 C74.9640606,15.1908235 75.1460606,15.6761569 75.3887273,16.0868235 C75.4820606,16.2921569 75.6733939,16.4881569 75.9627273,16.6748235 C76.2520606,16.8614902 76.5273939,16.9734902 76.7887273,17.0108235 C76.9380606,17.0294902 77.0780606,17.0854902 77.2087273,17.1788235 C77.3393939,17.2721569 77.4047273,17.4214902 77.4047273,17.6268235 C77.4047273,17.8134902 77.3673939,17.9628235 77.2927273,18.0748235 C77.2180606,18.1868235 77.0873939,18.2614902 76.9007273,18.2988235 C76.2847273,18.3734902 75.7107273,18.2241569 75.1787273,17.8508235 C74.6467273,17.4774902 74.1567273,16.8614902 73.7087273,16.0028235 C73.6340606,15.8908235 73.5360606,15.6808235 73.4147273,15.3728235 C73.2933939,15.0648235 73.2233939,14.8641569 73.2047273,14.7708235 C73.1300606,14.8641569 72.9900606,15.0368235 72.7847273,15.2888235 C72.5793939,15.5408235 72.4207273,15.7228235 72.3087273,15.8348235 C70.9833939,17.1788235 69.8400606,18.0794902 68.8787273,18.5368235 C67.9173939,18.9941569 67.1193939,19.0174902 66.4847273,18.6068235 Z M67.4927273,17.0388235 C67.4927273,17.1694902 67.6933939,17.1648235 68.0947273,17.0248235 C68.4960606,16.8848235 68.9300606,16.6281569 69.3967273,16.2548235 C70.0313939,15.7134902 70.6707273,15.1161569 71.3147273,14.4628235 C71.9587273,13.8094902 72.4767273,13.2028235 72.8687273,12.6428235 L73.4847273,11.6348235 C73.2980606,11.2054902 73.0973939,10.9114902 72.8827273,10.7528235 C72.6680606,10.5941569 72.4860606,10.5148235 72.3367273,10.5148235 C72.0940606,10.5148235 71.7347273,10.7388235 71.2587273,11.1868235 C70.7827273,11.6348235 70.2740606,12.2321569 69.7327273,12.9788235 C69.1913939,13.7254902 68.6780606,14.5468235 68.1927273,15.4428235 C68.0060606,15.8161569 67.8427273,16.1754902 67.7027273,16.5208235 C67.5627273,16.8661569 67.4927273,17.0388235 67.4927273,17.0388235 Z" id="Shape"></path>
                <path d="M87.9607273,19.3628235 C87.4940606,19.4001569 87.0507273,19.3721569 86.6307273,19.2788235 C86.2107273,19.1854902 85.8560606,19.0221569 85.5667273,18.7888235 C85.2773939,18.5554902 85.0767273,18.2708235 84.9647273,17.9348235 C84.8340606,17.6734902 84.7687273,17.4914902 84.7687273,17.3888235 C84.7687273,17.2861569 84.8340606,17.1974902 84.9647273,17.1228235 C85.1140606,17.1228235 85.2493939,17.1648235 85.3707273,17.2488235 C85.4920606,17.3328235 85.6553939,17.4214902 85.8607273,17.5148235 C86.1407273,17.7574902 86.4813939,17.8881569 86.8827273,17.9068235 C87.2840606,17.9254902 87.6527273,17.8601569 87.9887273,17.7108235 C88.3247273,17.5614902 88.5113939,17.3748235 88.5487273,17.1508235 C88.5487273,17.0761569 88.5207273,16.9454902 88.4647273,16.7588235 C88.4087273,16.5721569 88.3433939,16.3761569 88.2687273,16.1708235 C87.7647273,15.4614902 87.3960606,14.7568235 87.1627273,14.0568235 C86.9293939,13.3568235 86.8127273,12.7828235 86.8127273,12.3348235 C86.8127273,11.9988235 86.9153939,11.6394902 87.1207273,11.2568235 C87.3260606,10.8741569 87.6060606,10.5521569 87.9607273,10.2908235 C88.2967273,9.93615686 88.6700606,9.61882353 89.0807273,9.33882353 C89.4913939,9.05882353 89.9067273,8.81615686 90.3267273,8.61082353 C90.7467273,8.4054902 91.1247273,8.25615686 91.4607273,8.16282353 C91.6660606,8.16282353 91.9367273,8.19082353 92.2727273,8.24682353 C92.6087273,8.30282353 92.8420606,8.36815686 92.9727273,8.44282353 C93.1780606,8.5174902 93.3740606,8.71815686 93.5607273,9.04482353 C93.7473939,9.3714902 93.8407273,9.6934902 93.8407273,10.0108235 C93.8407273,10.1414902 93.8033939,10.3094902 93.7287273,10.5148235 C93.6540606,10.7201569 93.5327273,10.9628235 93.3647273,11.2428235 C93.2900606,11.4481569 93.2060606,11.6394902 93.1127273,11.8168235 C93.0193939,11.9941569 92.9727273,12.1201569 92.9727273,12.1948235 C92.8793939,12.4001569 92.7533939,12.4981569 92.5947273,12.4888235 C92.4360606,12.4794902 92.2773939,12.3954902 92.1187273,12.2368235 C91.9600606,12.0781569 91.8340606,11.8868235 91.7407273,11.6628235 C91.6660606,11.3828235 91.6380606,11.1541569 91.6567273,10.9768235 C91.6753939,10.7994902 91.7500606,10.6081569 91.8807273,10.4028235 C92.0860606,10.1974902 92.1887273,10.0574902 92.1887273,9.98282353 C92.1887273,9.90815686 92.0860606,9.87082353 91.8807273,9.87082353 C91.7500606,9.87082353 91.5120606,9.95015686 91.1667273,10.1088235 C90.8213939,10.2674902 90.4573939,10.4728235 90.0747273,10.7248235 C89.6920606,10.9768235 89.3607273,11.2428235 89.0807273,11.5228235 C88.7260606,11.8588235 88.5160606,12.1014902 88.4507273,12.2508235 C88.3853939,12.4001569 88.3527273,12.6334902 88.3527273,12.9508235 C88.3527273,13.2121569 88.4133939,13.5388235 88.5347273,13.9308235 C88.6560606,14.3228235 88.7820606,14.5841569 88.9127273,14.7148235 C88.9127273,14.7148235 88.9780606,14.8408235 89.1087273,15.0928235 C89.2393939,15.3448235 89.3980606,15.6108235 89.5847273,15.8908235 C90.1260606,17.0854902 90.2660606,17.9441569 90.0047273,18.4668235 C89.7433939,18.9894902 89.0620606,19.2881569 87.9607273,19.3628235 Z" id="Path"></path>
                <path d="M97.7607273,18.7188235 C97.6113939,18.7374902 97.4013939,18.6534902 97.1307273,18.4668235 C96.8600606,18.2801569 96.6127273,18.0654902 96.3887273,17.8228235 C96.2580606,17.6174902 96.1367273,17.3094902 96.0247273,16.8988235 C95.9127273,16.4881569 95.8287273,16.0308235 95.7727273,15.5268235 C95.7167273,15.0228235 95.6887273,14.5374902 95.6887273,14.0708235 C95.7073939,13.6041569 95.7587273,13.0861569 95.8427273,12.5168235 C95.9267273,11.9474902 96.0107273,11.4201569 96.0947273,10.9348235 C96.1787273,10.4494902 96.2393939,10.1228235 96.2767273,9.95482353 C96.4447273,9.76815686 96.6080606,9.6374902 96.7667273,9.56282353 C96.9253939,9.48815686 97.0700606,9.4694902 97.2007273,9.50682353 C97.3313939,9.54415686 97.4527273,9.64682353 97.5647273,9.81482353 C97.8260606,9.9454902 97.9520606,10.1508235 97.9427273,10.4308235 C97.9333939,10.7108235 97.8447273,11.0374902 97.6767273,11.4108235 C97.6767273,11.5041569 97.6580606,11.6301569 97.6207273,11.7888235 C97.5833939,11.9474902 97.5460606,12.0921569 97.5087273,12.2228235 C97.3593939,12.4841569 97.2753939,12.7174902 97.2567273,12.9228235 C97.2567273,13.1094902 97.2847273,13.3241569 97.3407273,13.5668235 C97.3967273,13.8094902 97.3500606,14.0334902 97.2007273,14.2388235 L97.2007273,14.2108235 C97.1820606,14.3414902 97.1773939,14.5654902 97.1867273,14.8828235 C97.1960606,15.2001569 97.2240606,15.5128235 97.2707273,15.8208235 C97.3173939,16.1288235 97.3873939,16.3481569 97.4807273,16.4788235 C97.4993939,16.6468235 97.5973939,16.7261569 97.7747273,16.7168235 C97.9520606,16.7074902 98.1807273,16.5814902 98.4607273,16.3388235 C98.6847273,16.1148235 98.9413939,15.8348235 99.2307273,15.4988235 C99.5200606,15.1628235 99.7907273,14.8174902 100.042727,14.4628235 C100.294727,14.1081569 100.500061,13.8001569 100.658727,13.5388235 C100.817394,13.2774902 100.878061,13.1094902 100.840727,13.0348235 C100.766061,12.8854902 100.808061,12.7594902 100.966727,12.6568235 C101.125394,12.5541569 101.260727,12.4561569 101.372727,12.3628235 C101.466061,12.2508235 101.522061,12.1341569 101.540727,12.0128235 C101.559394,11.8914902 101.606061,11.7654902 101.680727,11.6348235 C101.774061,11.5414902 101.848727,11.4108235 101.904727,11.2428235 C101.848727,11.1121569 101.890727,10.9954902 102.030727,10.8928235 C102.170727,10.7901569 102.259394,10.6828235 102.296727,10.5708235 C102.334061,10.3841569 102.404061,10.2534902 102.506727,10.1788235 C102.609394,10.1041569 102.726061,10.0808235 102.856727,10.1088235 C102.987394,10.1368235 103.104061,10.2021569 103.206727,10.3048235 C103.309394,10.4074902 103.370061,10.5521569 103.388727,10.7388235 C103.388727,10.9628235 103.309394,11.2894902 103.150727,11.7188235 C102.992061,12.1481569 102.791394,12.6054902 102.548727,13.0908235 C102.306061,13.5761569 102.044727,14.0148235 101.764727,14.4068235 C101.671394,14.5561569 101.587394,14.7054902 101.512727,14.8548235 C101.438061,15.0041569 101.321394,15.2001569 101.162727,15.4428235 C101.004061,15.6854902 100.738061,16.0401569 100.364727,16.5068235 C100.215394,16.6561569 100.066061,16.8101569 99.9167273,16.9688235 C99.7673939,17.1274902 99.6180606,17.2721569 99.4687273,17.4028235 C99.1140606,17.8134902 98.8060606,18.1308235 98.5447273,18.3548235 C98.2833939,18.5788235 98.0220606,18.7001569 97.7607273,18.7188235 Z" id="Path"></path>
                <path d="M110.808727,19.5588235 C110.622061,19.3721569 110.435394,19.1154902 110.248727,18.7888235 C110.062061,18.4621569 109.912727,18.0841569 109.800727,17.6548235 C109.763394,17.5054902 109.749394,17.3001569 109.758727,17.0388235 C109.768061,16.7774902 109.763394,16.5908235 109.744727,16.4788235 C109.688727,16.6094902 109.600061,16.7448235 109.478727,16.8848235 C109.357394,17.0248235 109.240727,17.1414902 109.128727,17.2348235 C109.054061,17.3094902 108.886061,17.4541569 108.624727,17.6688235 C108.363394,17.8834902 108.102061,18.0561569 107.840727,18.1868235 C107.224727,18.5788235 106.716061,18.7934902 106.314727,18.8308235 C105.913394,18.8681569 105.535394,18.6628235 105.180727,18.2148235 C104.882061,17.9721569 104.672061,17.7014902 104.550727,17.4028235 C104.429394,17.1041569 104.424727,16.6934902 104.536727,16.1708235 C104.574061,15.5174902 104.667394,14.8781569 104.816727,14.2528235 C104.966061,13.6274902 105.274061,12.7921569 105.740727,11.7468235 C106.132727,10.9814902 106.431394,10.4168235 106.636727,10.0528235 C106.842061,9.68882353 106.972727,9.4694902 107.028727,9.39482353 C107.308727,9.3014902 107.542061,9.30615686 107.728727,9.40882353 C107.915394,9.5114902 108.027394,9.6934902 108.064727,9.95482353 C108.176727,10.1414902 108.162727,10.4588235 108.022727,10.9068235 C107.882727,11.3548235 107.644727,11.9054902 107.308727,12.5588235 C107.047394,13.1934902 106.809394,13.8281569 106.594727,14.4628235 C106.380061,15.0974902 106.254061,15.6388235 106.216727,16.0868235 C106.179394,16.5348235 106.291394,16.8054902 106.552727,16.8988235 C106.720727,16.9921569 107.014727,16.9641569 107.434727,16.8148235 C107.854727,16.6654902 108.330727,16.2921569 108.862727,15.6948235 C109.394727,15.0974902 109.912727,14.1921569 110.416727,12.9788235 C110.566061,12.6054902 110.678061,12.2741569 110.752727,11.9848235 C110.827394,11.6954902 110.874061,11.3734902 110.892727,11.0188235 C110.855394,10.7948235 110.869394,10.5941569 110.934727,10.4168235 C111.000061,10.2394902 111.144727,10.0854902 111.368727,9.95482353 C111.443394,9.8614902 111.546061,9.77282353 111.676727,9.68882353 C111.807394,9.60482353 111.891394,9.6094902 111.928727,9.70282353 L112.376727,9.67482353 C112.451394,9.65615686 112.502727,9.69815686 112.530727,9.80082353 C112.558727,9.9034902 112.619394,9.99215686 112.712727,10.0668235 C112.918061,10.2348235 112.974061,10.5988235 112.880727,11.1588235 C112.787394,11.7188235 112.526061,12.5028235 112.096727,13.5108235 C111.742061,14.2761569 111.504061,14.8548235 111.382727,15.2468235 C111.261394,15.6388235 111.191394,16.0214902 111.172727,16.3948235 C111.172727,16.7308235 111.238061,17.0481569 111.368727,17.3468235 C111.499394,17.6454902 111.704727,17.9161569 111.984727,18.1588235 C112.190061,18.2894902 112.306727,18.4388235 112.334727,18.6068235 C112.362727,18.7748235 112.367394,18.9708235 112.348727,19.1948235 C112.311394,19.3628235 112.204061,19.4981569 112.026727,19.6008235 C111.849394,19.7034902 111.648727,19.7548235 111.424727,19.7548235 C111.200727,19.7548235 110.995394,19.6894902 110.808727,19.5588235 Z M111.088727,8.05082353 C110.454061,8.05082353 109.996727,7.8594902 109.716727,7.47682353 C109.436727,7.09415686 109.268727,6.63215686 109.212727,6.09082353 C109.212727,5.73615686 109.292061,5.3534902 109.450727,4.94282353 C109.609394,4.53215686 109.833394,4.1774902 110.122727,3.87882353 C110.412061,3.58015686 110.752727,3.43082353 111.144727,3.43082353 C111.742061,3.43082353 112.246061,3.56615686 112.656727,3.83682353 C113.067394,4.1074902 113.272727,4.5134902 113.272727,5.05482353 C113.272727,5.50282353 113.184061,5.96015686 113.006727,6.42682353 C112.829394,6.8934902 112.582061,7.28082353 112.264727,7.58882353 C111.947394,7.89682353 111.555394,8.05082353 111.088727,8.05082353 Z M110.976727,6.93082353 C111.312727,6.93082353 111.583394,6.8234902 111.788727,6.60882353 C111.994061,6.39415686 112.087394,6.06282353 112.068727,5.61482353 C112.050061,5.37215686 112.003394,5.13882353 111.928727,4.91482353 C111.854061,4.69082353 111.658061,4.57882353 111.340727,4.57882353 C110.631394,4.57882353 110.276727,5.0454902 110.276727,5.97882353 C110.276727,6.1654902 110.356061,6.37082353 110.514727,6.59482353 C110.673394,6.81882353 110.827394,6.93082353 110.976727,6.93082353 Z" id="Shape"></path>
                <path d="M113.356727,25.0468235 C112.946061,25.4574902 112.418727,25.6581569 111.774727,25.6488235 C111.130727,25.6394902 110.584727,25.4014902 110.136727,24.9348235 C109.912727,24.5801569 109.740061,24.1974902 109.618727,23.7868235 C109.497394,23.3761569 109.441394,23.0168235 109.450727,22.7088235 C109.460061,22.4008235 109.558061,22.2468235 109.744727,22.2468235 C109.838061,22.2468235 109.922061,22.2748235 109.996727,22.3308235 C110.071394,22.3868235 110.136727,22.4661569 110.192727,22.5688235 C110.248727,22.6714902 110.276727,22.7974902 110.276727,22.9468235 C110.276727,23.2268235 110.342061,23.4788235 110.472727,23.7028235 C110.603394,23.9268235 110.790061,24.0388235 111.032727,24.0388235 C111.238061,24.1134902 111.513394,24.0574902 111.858727,23.8708235 C112.204061,23.6841569 112.479394,23.4228235 112.684727,23.0868235 C112.871394,22.8441569 113.100061,22.4614902 113.370727,21.9388235 C113.641394,21.4161569 113.912061,20.8701569 114.182727,20.3008235 C114.453394,19.7314902 114.654061,19.2694902 114.784727,18.9148235 C115.008727,18.1494902 115.209394,17.3654902 115.386727,16.5628235 C115.564061,15.7601569 115.746061,14.9014902 115.932727,13.9868235 C116.007394,13.4828235 116.096061,13.0488235 116.198727,12.6848235 C116.301394,12.3208235 116.352727,12.1014902 116.352727,12.0268235 C116.352727,11.9521569 116.362061,11.7981569 116.380727,11.5648235 C116.399394,11.3314902 116.455394,11.1214902 116.548727,10.9348235 C116.548727,10.6548235 116.572061,10.4074902 116.618727,10.1928235 C116.665394,9.97815686 116.688727,9.8334902 116.688727,9.75882353 C116.744727,9.70282353 116.824061,9.68415686 116.926727,9.70282353 C117.029394,9.7214902 117.141394,9.75882353 117.262727,9.81482353 C117.384061,9.87082353 117.491394,9.9454902 117.584727,10.0388235 C117.734061,10.1881569 117.832061,10.3374902 117.878727,10.4868235 C117.925394,10.6361569 117.934727,10.8694902 117.906727,11.1868235 C117.878727,11.5041569 117.818061,12.0081569 117.724727,12.6988235 C117.724727,12.8108235 117.696727,13.0394902 117.640727,13.3848235 C117.584727,13.7301569 117.510061,14.1174902 117.416727,14.5468235 C117.323394,14.9761569 117.230061,15.3914902 117.136727,15.7928235 C117.043394,16.1941569 116.968727,16.5254902 116.912727,16.7868235 C116.838061,17.0668235 116.754061,17.3748235 116.660727,17.7108235 C116.567394,18.0468235 116.511394,18.2801569 116.492727,18.4108235 C116.474061,18.5228235 116.408727,18.7421569 116.296727,19.0688235 C116.184727,19.3954902 116.068061,19.7174902 115.946727,20.0348235 C115.825394,20.3521569 115.755394,20.5761569 115.736727,20.7068235 C115.718061,20.7814902 115.666727,20.9588235 115.582727,21.2388235 C115.498727,21.5188235 115.326061,21.9481569 115.064727,22.5268235 C114.971394,22.7508235 114.817394,23.0401569 114.602727,23.3948235 C114.388061,23.7494902 114.168727,24.0808235 113.944727,24.3888235 C113.720727,24.6968235 113.524727,24.9161569 113.356727,25.0468235 Z M117.780727,6.03482353 C117.575394,5.79215686 117.505394,5.47482353 117.570727,5.08282353 C117.636061,4.69082353 117.818061,4.29882353 118.116727,3.90682353 C118.359394,3.62682353 118.620727,3.46815686 118.900727,3.43082353 C119.180727,3.3934902 119.442061,3.4774902 119.684727,3.68282353 C119.890061,4.00015686 119.992727,4.25682353 119.992727,4.45282353 C119.992727,4.64882353 119.890061,4.89615686 119.684727,5.19482353 C119.218061,5.7174902 118.844727,6.0394902 118.564727,6.16082353 C118.284727,6.28215686 118.023394,6.24015686 117.780727,6.03482353 Z" id="Shape"></path>
                <path d="M127.160727,18.9988235 C126.974061,18.8681569 126.834061,18.7468235 126.740727,18.6348235 C126.647394,18.5228235 126.610061,18.3641569 126.628727,18.1588235 C126.666061,17.8788235 126.722061,17.5848235 126.796727,17.2768235 C126.871394,16.9688235 126.964727,16.6654902 127.076727,16.3668235 C127.132727,16.0308235 127.202727,15.6948235 127.286727,15.3588235 C127.370727,15.0228235 127.515394,14.7054902 127.720727,14.4068235 C127.963394,13.7161569 128.215394,13.0301569 128.476727,12.3488235 C128.738061,11.6674902 128.962061,10.9534902 129.148727,10.2068235 C129.428727,9.53482353 129.685394,8.9374902 129.918727,8.41482353 C130.152061,7.89215686 130.436727,7.22015686 130.772727,6.39882353 C130.959394,5.9694902 131.122727,5.48882353 131.262727,4.95682353 C131.402727,4.42482353 131.622061,3.9534902 131.920727,3.54282353 C132.051394,3.37482353 132.149394,3.23015686 132.214727,3.10882353 C132.280061,2.9874902 132.350061,2.87082353 132.424727,2.75882353 C132.462061,2.64682353 132.588061,2.6094902 132.802727,2.64682353 C133.017394,2.68415686 133.171394,2.76815686 133.264727,2.89882353 C133.358061,2.88015686 133.470061,3.0014902 133.600727,3.26282353 C133.731394,3.52415686 133.778061,3.7294902 133.740727,3.87882353 C133.740727,4.08415686 133.666061,4.30815686 133.516727,4.55082353 C133.442061,4.6254902 133.367394,4.73282353 133.292727,4.87282353 C133.218061,5.01282353 133.106061,5.19482353 132.956727,5.41882353 C132.882061,5.6614902 132.807394,5.90415686 132.732727,6.14682353 C132.658061,6.3894902 132.574061,6.6134902 132.480727,6.81882353 C132.387394,7.02415686 132.284727,7.2294902 132.172727,7.43482353 C132.060727,7.64015686 131.986061,7.80815686 131.948727,7.93882353 C131.780727,8.36815686 131.598727,8.7834902 131.402727,9.18482353 C131.206727,9.58615686 131.034061,10.0108235 130.884727,10.4588235 C130.735394,10.8881569 130.581394,11.3408235 130.422727,11.8168235 C130.264061,12.2928235 130.054061,12.7454902 129.792727,13.1748235 C129.662061,13.3614902 129.559394,13.6134902 129.484727,13.9308235 C129.410061,14.2481569 129.335394,14.5561569 129.260727,14.8548235 C129.130061,15.1908235 129.013394,15.4988235 128.910727,15.7788235 C128.808061,16.0588235 128.756727,16.2361569 128.756727,16.3108235 C128.626061,16.7214902 128.523394,17.1274902 128.448727,17.5288235 C128.374061,17.9301569 128.252727,18.2801569 128.084727,18.5788235 C128.066061,18.8588235 127.986727,19.0454902 127.846727,19.1388235 C127.706727,19.2321569 127.478061,19.1854902 127.160727,18.9988235 Z M133.852727,19.4468235 C133.554061,19.4094902 133.330061,19.3488235 133.180727,19.2648235 C133.031394,19.1808235 132.751394,18.9894902 132.340727,18.6908235 C132.116727,18.4668235 131.808727,18.1214902 131.416727,17.6548235 C131.024727,17.1881569 130.632727,16.6888235 130.240727,16.1568235 C129.848727,15.6248235 129.522061,15.1721569 129.260727,14.7988235 L130.408727,13.2588235 C130.651394,13.5574902 130.847394,13.8374902 130.996727,14.0988235 C131.146061,14.3601569 131.267394,14.5374902 131.360727,14.6308235 C131.790061,15.2654902 132.130727,15.7788235 132.382727,16.1708235 C132.634727,16.5628235 132.863394,16.8801569 133.068727,17.1228235 C133.274061,17.3654902 133.493394,17.5801569 133.726727,17.7668235 C133.960061,17.9534902 134.254061,18.1494902 134.608727,18.3548235 C134.664727,18.3921569 134.720727,18.4481569 134.776727,18.5228235 C134.832727,18.5974902 134.851394,18.7094902 134.832727,18.8588235 C134.758061,19.0641569 134.678727,19.1901569 134.594727,19.2368235 C134.510727,19.2834902 134.263394,19.3534902 133.852727,19.4468235 Z M129.176727,14.4908235 C129.064727,14.1734902 129.106727,13.8514902 129.302727,13.5248235 C129.498727,13.1981569 129.718061,12.9694902 129.960727,12.8388235 C130.035394,12.7081569 130.114727,12.6194902 130.198727,12.5728235 C130.282727,12.5261569 130.334061,12.4654902 130.352727,12.3908235 C130.390061,12.3161569 130.488061,12.2134902 130.646727,12.0828235 C130.805394,11.9521569 130.950061,11.8308235 131.080727,11.7188235 C131.379394,11.5321569 131.720061,11.3034902 132.102727,11.0328235 C132.485394,10.7621569 132.854061,10.4868235 133.208727,10.2068235 C133.563394,9.92682353 133.866727,9.68415686 134.118727,9.47882353 C134.370727,9.2734902 134.524727,9.14282353 134.580727,9.08682353 C134.636727,9.01215686 134.716061,8.96082353 134.818727,8.93282353 C134.921394,8.90482353 135.056727,8.92815686 135.224727,9.00282353 C135.448727,9.05882353 135.598061,9.1474902 135.672727,9.26882353 C135.747394,9.39015686 135.784727,9.61882353 135.784727,9.95482353 C135.840727,10.1601569 135.761394,10.3794902 135.546727,10.6128235 C135.332061,10.8461569 135.010061,11.1028235 134.580727,11.3828235 C134.431394,11.4761569 134.230727,11.6161569 133.978727,11.8028235 C133.726727,11.9894902 133.507394,12.1668235 133.320727,12.3348235 C133.190061,12.4094902 132.998727,12.5354902 132.746727,12.7128235 C132.494727,12.8901569 132.275394,13.0628235 132.088727,13.2308235 C131.939394,13.3241569 131.743394,13.4874902 131.500727,13.7208235 C131.258061,13.9541569 131.015394,14.1268235 130.772727,14.2388235 C130.175394,14.7988235 129.783394,15.0974902 129.596727,15.1348235 C129.410061,15.1721569 129.270061,14.9574902 129.176727,14.4908235 Z" id="Shape"></path>
                <path d="M137.212727,19.8668235 C136.970061,19.7734902 136.792727,19.6288235 136.680727,19.4328235 C136.568727,19.2368235 136.503394,18.9521569 136.484727,18.5788235 C136.484727,18.3548235 136.522061,18.0561569 136.596727,17.6828235 C136.671394,17.3094902 136.755394,16.8801569 136.848727,16.3948235 C136.848727,16.3574902 136.853394,16.3154902 136.862727,16.2688235 C136.872061,16.2221569 136.876727,16.1894902 136.876727,16.1708235 C136.895394,16.0961569 136.918727,15.9841569 136.946727,15.8348235 C136.974727,15.6854902 136.998061,15.5688235 137.016727,15.4848235 C137.035394,15.4008235 137.044727,15.4054902 137.044727,15.4988235 L137.240727,14.7428235 C137.334061,14.4068235 137.427394,14.0708235 137.520727,13.7348235 C137.614061,13.3988235 137.698061,13.1048235 137.772727,12.8528235 C137.847394,12.6008235 137.894061,12.4561569 137.912727,12.4188235 C137.912727,12.4188235 137.950061,12.3114902 138.024727,12.0968235 C138.099394,11.8821569 138.174061,11.6721569 138.248727,11.4668235 C138.566061,10.5894902 138.855394,9.8474902 139.116727,9.24082353 C139.378061,8.63415686 139.611394,8.19082353 139.816727,7.91082353 C139.835394,7.85482353 139.863394,7.78482353 139.900727,7.70082353 C139.938061,7.61682353 139.966061,7.54682353 139.984727,7.49082353 C140.003394,7.3414902 140.026727,7.22482353 140.054727,7.14082353 C140.082727,7.05682353 140.124727,6.9774902 140.180727,6.90282353 C140.218061,6.82815686 140.274061,6.73015686 140.348727,6.60882353 C140.423394,6.4874902 140.507394,6.3334902 140.600727,6.14682353 L140.712727,5.83882353 C140.824727,5.59615686 140.964727,5.3254902 141.132727,5.02682353 C141.300727,4.72815686 141.422061,4.5134902 141.496727,4.38282353 C141.571394,4.21482353 141.683394,4.01415686 141.832727,3.78082353 C141.982061,3.5474902 142.094061,3.3934902 142.168727,3.31882353 L142.140727,3.29082353 C142.234061,3.12282353 142.350727,3.02482353 142.490727,2.99682353 C142.630727,2.96882353 142.784727,2.95482353 142.952727,2.95482353 C143.214061,2.95482353 143.363394,2.99215686 143.400727,3.06682353 C143.438061,3.1414902 143.456727,3.3094902 143.456727,3.57082353 C143.456727,3.85082353 143.452061,4.0514902 143.442727,4.17282353 C143.433394,4.29415686 143.354061,4.4294902 143.204727,4.57882353 L143.232727,4.57882353 C143.270061,4.5414902 143.260727,4.5834902 143.204727,4.70482353 C143.148727,4.82615686 143.102061,4.91482353 143.064727,4.97082353 C143.027394,5.06415686 142.985394,5.16682353 142.938727,5.27882353 C142.892061,5.39082353 142.840727,5.47482353 142.784727,5.53082353 C142.728727,5.6054902 142.593394,5.85282353 142.378727,6.27282353 C142.164061,6.69282353 141.921394,7.18282353 141.650727,7.74282353 C141.380061,8.30282353 141.123394,8.84415686 140.880727,9.36682353 C140.638061,9.8894902 140.460727,10.2908235 140.348727,10.5708235 L140.208727,10.9908235 C140.171394,11.0654902 140.152727,11.1214902 140.152727,11.1588235 C140.096727,11.2894902 140.040727,11.4201569 139.984727,11.5508235 C139.928727,11.6814902 139.872727,11.7934902 139.816727,11.8868235 L139.340727,13.5108235 L139.200727,14.0988235 L138.948727,14.7148235 L138.780727,15.2468235 C138.743394,15.3588235 138.715394,15.4614902 138.696727,15.5548235 C138.678061,15.6481569 138.640727,15.7228235 138.584727,15.7788235 C138.584727,15.7974902 138.580061,15.8208235 138.570727,15.8488235 C138.561394,15.8768235 138.556727,15.9001569 138.556727,15.9188235 C138.482061,16.2174902 138.398061,16.6374902 138.304727,17.1788235 C138.211394,17.7201569 138.146061,18.2894902 138.108727,18.8868235 C138.108727,18.9054902 138.104061,18.9241569 138.094727,18.9428235 C138.085394,18.9614902 138.080727,18.9801569 138.080727,18.9988235 C138.024727,19.3908235 137.931394,19.6521569 137.800727,19.7828235 C137.670061,19.9134902 137.474061,19.9414902 137.212727,19.8668235 Z" id="Path"></path>
                <path d="M148.608727,19.5588235 C148.422061,19.3721569 148.235394,19.1154902 148.048727,18.7888235 C147.862061,18.4621569 147.712727,18.0841569 147.600727,17.6548235 C147.563394,17.5054902 147.549394,17.3001569 147.558727,17.0388235 C147.568061,16.7774902 147.563394,16.5908235 147.544727,16.4788235 C147.488727,16.6094902 147.400061,16.7448235 147.278727,16.8848235 C147.157394,17.0248235 147.040727,17.1414902 146.928727,17.2348235 C146.854061,17.3094902 146.686061,17.4541569 146.424727,17.6688235 C146.163394,17.8834902 145.902061,18.0561569 145.640727,18.1868235 C145.024727,18.5788235 144.516061,18.7934902 144.114727,18.8308235 C143.713394,18.8681569 143.335394,18.6628235 142.980727,18.2148235 C142.682061,17.9721569 142.472061,17.7014902 142.350727,17.4028235 C142.229394,17.1041569 142.224727,16.6934902 142.336727,16.1708235 C142.374061,15.5174902 142.467394,14.8781569 142.616727,14.2528235 C142.766061,13.6274902 143.074061,12.7921569 143.540727,11.7468235 C143.932727,10.9814902 144.231394,10.4168235 144.436727,10.0528235 C144.642061,9.68882353 144.772727,9.4694902 144.828727,9.39482353 C145.108727,9.3014902 145.342061,9.30615686 145.528727,9.40882353 C145.715394,9.5114902 145.827394,9.6934902 145.864727,9.95482353 C145.976727,10.1414902 145.962727,10.4588235 145.822727,10.9068235 C145.682727,11.3548235 145.444727,11.9054902 145.108727,12.5588235 C144.847394,13.1934902 144.609394,13.8281569 144.394727,14.4628235 C144.180061,15.0974902 144.054061,15.6388235 144.016727,16.0868235 C143.979394,16.5348235 144.091394,16.8054902 144.352727,16.8988235 C144.520727,16.9921569 144.814727,16.9641569 145.234727,16.8148235 C145.654727,16.6654902 146.130727,16.2921569 146.662727,15.6948235 C147.194727,15.0974902 147.712727,14.1921569 148.216727,12.9788235 C148.366061,12.6054902 148.478061,12.2741569 148.552727,11.9848235 C148.627394,11.6954902 148.674061,11.3734902 148.692727,11.0188235 C148.655394,10.7948235 148.669394,10.5941569 148.734727,10.4168235 C148.800061,10.2394902 148.944727,10.0854902 149.168727,9.95482353 C149.243394,9.8614902 149.346061,9.77282353 149.476727,9.68882353 C149.607394,9.60482353 149.691394,9.6094902 149.728727,9.70282353 L150.176727,9.67482353 C150.251394,9.65615686 150.302727,9.69815686 150.330727,9.80082353 C150.358727,9.9034902 150.419394,9.99215686 150.512727,10.0668235 C150.718061,10.2348235 150.774061,10.5988235 150.680727,11.1588235 C150.587394,11.7188235 150.326061,12.5028235 149.896727,13.5108235 C149.542061,14.2761569 149.304061,14.8548235 149.182727,15.2468235 C149.061394,15.6388235 148.991394,16.0214902 148.972727,16.3948235 C148.972727,16.7308235 149.038061,17.0481569 149.168727,17.3468235 C149.299394,17.6454902 149.504727,17.9161569 149.784727,18.1588235 C149.990061,18.2894902 150.106727,18.4388235 150.134727,18.6068235 C150.162727,18.7748235 150.167394,18.9708235 150.148727,19.1948235 C150.111394,19.3628235 150.004061,19.4981569 149.826727,19.6008235 C149.649394,19.7034902 149.448727,19.7548235 149.224727,19.7548235 C149.000727,19.7548235 148.795394,19.6894902 148.608727,19.5588235 Z" id="Path"></path>
                <path d="M155.104727,19.1388235 C154.731394,19.1014902 154.502727,19.0548235 154.418727,18.9988235 C154.334727,18.9428235 154.236727,18.7934902 154.124727,18.5508235 C153.975394,18.3828235 153.886727,18.2521569 153.858727,18.1588235 C153.830727,18.0654902 153.826061,17.9814902 153.844727,17.9068235 C153.938061,17.9068235 154.022061,17.9021569 154.096727,17.8928235 C154.171394,17.8834902 154.218061,17.8508235 154.236727,17.7948235 C154.236727,17.7388235 154.269394,17.7014902 154.334727,17.6828235 C154.400061,17.6641569 154.470061,17.6641569 154.544727,17.6828235 C154.899394,17.7014902 155.352061,17.5848235 155.902727,17.3328235 C156.453394,17.0808235 157.050727,16.7261569 157.694727,16.2688235 C158.338727,15.8114902 158.968727,15.3028235 159.584727,14.7428235 C160.070061,14.1081569 160.424727,13.6088235 160.648727,13.2448235 C160.872727,12.8808235 161.003394,12.5821569 161.040727,12.3488235 C161.078061,12.1154902 161.050061,11.9148235 160.956727,11.7468235 C160.882061,11.5974902 160.611394,11.5368235 160.144727,11.5648235 C159.678061,11.5928235 159.155394,11.7934902 158.576727,12.1668235 C157.774061,12.6708235 157.130061,13.1374902 156.644727,13.5668235 C156.159394,13.9961569 155.711394,14.4814902 155.300727,15.0228235 C155.151394,15.2094902 155.006727,15.4334902 154.866727,15.6948235 C154.726727,15.9561569 154.610061,16.1801569 154.516727,16.3668235 C154.423394,16.5534902 154.376727,16.6468235 154.376727,16.6468235 C154.376727,16.7214902 154.269394,16.8148235 154.054727,16.9268235 C153.840061,17.0388235 153.658061,17.0948235 153.508727,17.0948235 C153.434061,17.0574902 153.336061,16.9874902 153.214727,16.8848235 C153.093394,16.7821569 153.014061,16.6468235 152.976727,16.4788235 C152.846061,16.3854902 152.752727,16.3108235 152.696727,16.2548235 C152.640727,16.1988235 152.603394,16.1334902 152.584727,16.0588235 C152.566061,15.9468235 152.594061,15.7694902 152.668727,15.5268235 C152.743394,15.2841569 152.846061,14.9014902 152.976727,14.3788235 C153.088727,13.8934902 153.214727,13.3894902 153.354727,12.8668235 C153.494727,12.3441569 153.630061,11.8961569 153.760727,11.5228235 C153.891394,11.1494902 153.984727,10.9441569 154.040727,10.9068235 C154.040727,10.9068235 154.078061,10.8228235 154.152727,10.6548235 C154.227394,10.4868235 154.264727,10.2908235 154.264727,10.0668235 C154.302061,9.84282353 154.362727,9.64682353 154.446727,9.47882353 C154.530727,9.31082353 154.572727,9.1894902 154.572727,9.11482353 C154.647394,9.05882353 154.759394,8.83482353 154.908727,8.44282353 C155.058061,8.05082353 155.244727,7.5374902 155.468727,6.90282353 C155.468727,6.84682353 155.534061,6.66482353 155.664727,6.35682353 C155.795394,6.04882353 155.954061,5.68482353 156.140727,5.26482353 C156.327394,4.84482353 156.518727,4.40615686 156.714727,3.94882353 C156.910727,3.4914902 157.074061,3.0854902 157.204727,2.73082353 C157.428727,2.4134902 157.601394,2.1194902 157.722727,1.84882353 C157.844061,1.57815686 157.970061,1.41482353 158.100727,1.35882353 C158.194061,1.34015686 158.310727,1.34482353 158.450727,1.37282353 C158.590727,1.40082353 158.730727,1.45215686 158.870727,1.52682353 C159.010727,1.6014902 159.127394,1.7134902 159.220727,1.86282353 C159.276727,1.95615686 159.314061,2.04015686 159.332727,2.11482353 C159.351394,2.1894902 159.323394,2.32482353 159.248727,2.52082353 C159.174061,2.71682353 159.029394,3.0434902 158.814727,3.50082353 C158.600061,3.95815686 158.287394,4.61615686 157.876727,5.47482353 C157.354061,6.59482353 156.924727,7.5934902 156.588727,8.47082353 C156.252727,9.34815686 155.972727,10.1228235 155.748727,10.7948235 C155.524727,11.4668235 155.319394,12.0454902 155.132727,12.5308235 L154.992727,13.1468235 L155.692727,12.4748235 C155.972727,12.2694902 156.280727,12.0174902 156.616727,11.7188235 C156.952727,11.4201569 157.251394,11.1588235 157.512727,10.9348235 C157.662061,10.8228235 157.862727,10.7061569 158.114727,10.5848235 C158.366727,10.4634902 158.614061,10.3561569 158.856727,10.2628235 C159.099394,10.1694902 159.276727,10.1134902 159.388727,10.0948235 C159.444727,10.0761569 159.584727,10.0481569 159.808727,10.0108235 C160.032727,9.9734902 160.303394,9.95482353 160.620727,9.95482353 C161.031394,9.95482353 161.362727,10.0481569 161.614727,10.2348235 C161.866727,10.4214902 162.114061,10.7201569 162.356727,11.1308235 C162.562061,11.5228235 162.646061,11.9661569 162.608727,12.4608235 C162.571394,12.9554902 162.422061,13.4174902 162.160727,13.8468235 C162.067394,13.9214902 161.974061,14.0194902 161.880727,14.1408235 C161.787394,14.2621569 161.740727,14.3601569 161.740727,14.4348235 C161.722061,14.5654902 161.554061,14.8314902 161.236727,15.2328235 C160.919394,15.6341569 160.602061,16.0121569 160.284727,16.3668235 C159.948727,16.7214902 159.538061,17.0714902 159.052727,17.4168235 C158.567394,17.7621569 158.086727,18.0701569 157.610727,18.3408235 C157.134727,18.6114902 156.728727,18.8028235 156.392727,18.9148235 C156.243394,18.9334902 156.028727,18.9661569 155.748727,19.0128235 C155.468727,19.0594902 155.254061,19.1014902 155.104727,19.1388235 Z" id="Path"></path>
            </g>
        </g>
    </g>
</svg>