<?xml version="1.0" encoding="UTF-8"?>
<svg width="16px" height="16px" viewBox="0 0 16 16" version="1.1" xmlns="http://www.w3.org/2000/svg" xmlns:xlink="http://www.w3.org/1999/xlink">
    <title>1479877206 twitter</title>
    <g id="🚂-Playground" stroke="none" stroke-width="1" fill="none" fill-rule="evenodd">
        <g id="Homepage" transform="translate(-749.000000, -2851.000000)">
            <g id="Group-17" transform="translate(0.000000, 2649.000000)">
                <g id="Group-16" transform="translate(0.000000, 56.000000)">
                    <g transform="translate(250.000000, 0.000000)" id="Group-7">
                        <g transform="translate(480.000000, 0.000000)">
                            <g id="1479877206-twitter" transform="translate(18.999754, 146.000000)">
                                <rect id="Rectangle" x="0.00024615385" y="0" width="15.7538464" height="15.7538464"></rect>
                                <path d="M15.7540925,2.86695389 C15.1752618,3.13058466 14.5520002,3.30880005 13.8982156,3.38843082 C14.5657848,2.97883081 15.0781541,2.3292308 15.3195079,1.55556925 C14.6944002,1.93489234 14.0036925,2.2108308 13.2657233,2.35876927 C12.6776617,1.71495387 11.8370463,1.31286156 10.9068309,1.31286156 C9.12307706,1.31286156 7.67593858,2.79680004 7.67593858,4.62695392 C7.67593858,4.8867693 7.70363088,5.13895392 7.75913858,5.3817847 C5.07310777,5.24320008 2.69206158,3.92516929 1.09686155,1.91778464 C0.818584628,2.40898465 0.659446164,2.97883081 0.659446164,3.58572313 C0.659446164,4.73501546 1.23003079,5.74953855 2.09735388,6.34412317 C1.56849233,6.32800009 1.06904617,6.17723086 0.632615394,5.93070778 L0.632615394,5.97144624 C0.632615394,7.57772319 1.7468308,8.91753859 3.22633851,9.22104629 C2.9554462,9.29883091 2.66966158,9.33772322 2.37464619,9.33772322 C2.16664619,9.33772322 1.96320003,9.31778475 1.76615387,9.27889245 C2.17760003,10.5950771 3.37046159,11.5537232 4.78523084,11.5793232 C3.67926159,12.4688002 2.28492311,12.9987694 0.771200011,12.9987694 C0.510400008,12.9987694 0.252430773,12.983631 0,12.953231 C1.4305231,13.8919387 3.13009235,14.4409848 4.95446161,14.4409848 C10.9001848,14.4409848 14.1504002,9.39163091 14.1504002,5.01181546 C14.1504002,4.86769238 14.1475694,4.7235693 14.142031,4.58227699 C14.7739079,4.11483083 15.3222156,3.53169236 15.7540925,2.86695389" id="Twitter_1_" fill="#00AAEC"></path>
                            </g>
                        </g>
                    </g>
                </g>
            </g>
        </g>
    </g>
</svg>