<?xml version="1.0" encoding="UTF-8"?>
<svg width="24px" height="24px" viewBox="0 0 24 24" version="1.1" xmlns="http://www.w3.org/2000/svg" xmlns:xlink="http://www.w3.org/1999/xlink">
    <title>1479877261 46 facebook copy</title>
    <g id="🚂-Playground" stroke="none" stroke-width="1" fill="none" fill-rule="evenodd">
        <g id="Článek" transform="translate(-1550.000000, -26.000000)" fill="#FCC824" fill-rule="nonzero">
            <g id="Group-26" transform="translate(0.000000, -49.000000)">
                <g id="Group-25" transform="translate(0.000000, 49.000000)">
                    <g id="1479877261-46-facebook-copy" transform="translate(1550.000975, 26.000000)">
                        <path d="M12.0004873,0 C18.6276803,0 24.0009747,5.37378168 24.0009747,12.0004873 C24.0009747,18.6281676 18.6281676,24 12.0004873,24 C5.37280702,24 0,18.6281676 0,12.0004873 C0,5.37378168 5.37280702,0 12.0004873,0 Z M14.8376317,6.33528265 C13.2071462,6.33528265 11.8851705,7.65725839 11.8851705,9.28803597 C11.8851705,9.51912609 11.9111718,9.74437323 11.9617136,9.96085588 C9.50765923,9.83756887 7.33173099,8.6622521 5.87536656,6.87575892 C5.62119664,7.31164572 5.47570627,7.81881697 5.47570627,8.36046183 C5.47570627,9.3847374 5.99690069,10.2886474 6.78920968,10.818022 C6.30541038,10.8025381 5.84994957,10.6696102 5.45175003,10.4484531 L5.45145788,10.4858482 C5.45145788,11.9162114 6.46930616,13.1093493 7.82020468,13.3810481 C7.57246204,13.4482425 7.31157269,13.484469 7.042211,13.484469 C6.85172964,13.484469 6.66679911,13.4660636 6.48654297,13.4312978 C6.86253916,14.6042774 7.95284048,15.4582299 9.24472483,15.481894 C8.23418028,16.2739108 6.96128564,16.7460242 5.57766639,16.7460242 C5.33956468,16.7460242 5.10438447,16.732001 4.87329435,16.704539 C6.18037047,17.5427154 7.73226773,18.0311891 9.39956398,18.0311891 C14.8309122,18.0311891 17.8006102,13.5320893 17.8006102,9.63014284 C17.8006102,9.50218143 17.7979809,9.37451217 17.79243,9.24771936 C18.3691328,8.83228301 18.8698768,8.31196504 19.265447,7.71977834 C18.7363645,7.95495856 18.1669655,8.11359565 17.5695201,8.18458793 C18.1795279,7.81940127 18.647259,7.24094559 18.8678317,6.55088886 C18.2972641,6.88948994 17.6656372,7.13518753 16.9928173,7.26782332 C16.4543861,6.69404203 15.6869098,6.33528265 14.8376317,6.33528265 Z" id="Shape"></path>
                    </g>
                </g>
            </g>
        </g>
    </g>
</svg>