<svg width="39" height="35" viewBox="0 0 39 35" xmlns="http://www.w3.org/2000/svg"><g transform="translate(1 1)" stroke="#671219" stroke-width="2" fill="none" fill-rule="evenodd" stroke-linecap="round" stroke-linejoin="round"><path d="M24.356 20.531s-8.334-.34-11.981.718a3.845 3.845 0 00-2.586 2.516v.022a2.144 2.144 0 001.399 2.694l18.71 5.922 2.932-9.194-1.013.522c-2.026 1.047-5.1.073-6.919-2.19a9.258 9.258 0 01-.542-1.01h0zM26.32 32.96l.49-1.53M21.71 31.5l.48-1.53M12.48 28.58l.49-1.53M17.09 30.04l.49-1.53"/><path d="M24.356 20.531l2.112-13.184a.804.804 0 011.03-.644c3.165.957 5.754 1.505 8.93 2.47a.806.806 0 01.534 1.013l-4.15 13.024M25.81 11.26l9.87 2.94"/><ellipse cx="8.87" cy="8.84" rx="8.87" ry="8.84"/><path d="M8.872 2.412L4.839 5.628l1.613 4.823h4.839l1.613-4.823zM6.45 10.45l-2.73 5.44M11.29 10.45l2.79 5.56M4.84 5.63H.6M8.87 2.41V0M12.9 5.63h4.24M18.21 20.56L20 29.28M21.96 20.48l2.03 9.87M14.56 20.82l1.35 7.16"/></g></svg>