<svg width="39" height="39" viewBox="0 0 39 39" xmlns="http://www.w3.org/2000/svg"><g stroke="#671219" stroke-width="2" fill="none" fill-rule="evenodd" stroke-linecap="round" stroke-linejoin="round"><path d="M19.5 1C9.283 1 1 9.283 1 19.5S9.283 38 19.5 38 38 29.717 38 19.5 29.717 1 19.5 1z"/><path d="M14.44 27.317l-3.144-9.702 8.225-5.994 8.225 5.994-3.14 9.702zM26.594 2.41l-7.073 3.02-7.07-3.02M5.528 7.374l.686 7.757-5.15 5.926M3.678 29.072l7.62 1.755 4 6.694M23.758 37.508l3.988-6.684 7.585-1.747M37.939 21.01l-5.113-5.884.683-7.709M19.52 5.43v6.19M27.75 17.61l5.08-2.48M24.61 27.32l3.14 3.5M14.44 27.32l-3.14 3.51M6.21 15.13l5.09 2.48"/></g></svg>