<svg width="24" height="24" viewBox="0 0 24 24" xmlns="http://www.w3.org/2000/svg"><g fill="#671219" fill-rule="nonzero"><path d="M23.077 22.164h-.923V13.9a.92.92 0 00-.923-.918h-6.462V8.392a.92.92 0 00-.923-.918h-3.692a.92.92 0 00-.923.918v4.59H2.769a.92.92 0 00-.923.919v8.263H.923a.92.92 0 00-.923.918.92.92 0 00.923.918h22.154a.92.92 0 00.923-.918.92.92 0 00-.923-.918zm-12-12.854h1.846v3.673h-1.846V9.31zm9.23 5.509v1.93c-.906.191-1.48.642-1.961 1.025-.543.432-.902.717-1.732.717s-1.189-.285-1.732-.717c-.626-.498-1.406-1.119-2.884-1.119s-2.257.621-2.884 1.12c-.542.431-.9.716-1.73.716s-1.188-.285-1.73-.717c-.482-.383-1.055-.834-1.962-1.025v-1.93h16.616zM3.693 18.668c.282.125.52.311.808.54.627.499 1.407 1.12 2.884 1.12 1.478 0 2.257-.622 2.884-1.12.542-.432.9-.717 1.73-.717s1.19.285 1.731.717c.627.499 1.407 1.12 2.885 1.12 1.478 0 2.258-.621 2.885-1.12.288-.23.526-.415.809-.541v3.497H3.692v-3.496zM12 6.556A2.765 2.765 0 0014.77 3.8c0-.696-.318-1.584-.616-2.181C13.62.545 12.991 0 12.284 0c-.346 0-.679.141-.937.398l-.218.216c-.933.92-1.898 1.872-1.898 3.187A2.765 2.765 0 0012 6.556zm.289-4.5c.292.453.634 1.302.634 1.745A.922.922 0 0112 4.72a.922.922 0 01-.923-.919c0-.513.571-1.11 1.212-1.745z"/></g></svg>