<svg width="32" height="39" viewBox="0 0 32 39" xmlns="http://www.w3.org/2000/svg"><g stroke="#671219" stroke-width="2" fill="none" fill-rule="evenodd" stroke-linecap="round" stroke-linejoin="round"><path d="M12.778 37.5c-3.959-1.198-6.604-4.877-6.445-8.961v-4.772c0-1.546.806-3.18 2.417-3.18h.806c1.61 0 2.416 1.59 2.416 3.18v3.181s5.64 1.591 5.64 4.772M30.5 18.2v11.93a7.88 7.88 0 01-2.417 5.673M20.833 22.177V11.838c0-1.317 1.082-2.385 2.417-2.385 1.335 0 2.417 1.068 2.417 2.385v6.363"/><path d="M25.667 22.177V18.2c0-1.318 1.082-2.386 2.416-2.386 1.335 0 2.417 1.068 2.417 2.386v2.385M6.459 30.13H3.917c-1.335 0-2.417-1.069-2.417-2.386V3.886C1.5 2.568 2.582 1.5 3.917 1.5h14.5c1.334 0 2.416 1.068 2.416 2.386v23.858c0 1.317-1.082 2.385-2.416 2.385h-1.309"/></g></svg>