<svg width="19" height="23" viewBox="0 0 19 23" xmlns="http://www.w3.org/2000/svg"><g fill="#671219" fill-rule="nonzero"><path d="M18.252 11.212c0-5-3.956-9.067-8.819-9.067-4.862 0-8.818 4.067-8.818 9.067a9.153 9.153 0 003.22 7l-2.19 3.378c-.27.417-.16.98.244 1.257.15.104.32.153.488.153a.874.874 0 00.735-.404l2.19-3.378a8.572 8.572 0 008.262 0l2.19 3.378c.17.263.45.404.735.404a.857.857 0 00.488-.152.923.923 0 00.245-1.258l-2.19-3.377a9.155 9.155 0 003.22-7zm-15.874 0c0-4 3.165-7.254 7.055-7.254 3.89 0 7.055 3.254 7.055 7.254 0 4-3.165 7.254-7.055 7.254-3.89 0-7.055-3.254-7.055-7.254z"/><path d="M12.079 10.305h-1.764V6.678c0-.5-.395-.906-.882-.906a.895.895 0 00-.882.906v4.534c0 .5.395.907.882.907h2.646a.895.895 0 00.881-.907c0-.5-.395-.907-.881-.907zM1.594 5.336a9.692 9.692 0 014.68-3.558.913.913 0 00.548-1.152A.875.875 0 005.7.064C3.476.85 1.563 2.304.17 4.267a.923.923 0 00.192 1.267.862.862 0 001.232-.198zM18.83 4.253C17.437 2.291 15.524.837 13.3.05a.875.875 0 00-1.122.562.913.913 0 00.547 1.153 9.695 9.695 0 014.68 3.558c.173.243.441.371.713.371.18 0 .363-.056.52-.174a.922.922 0 00.192-1.267z"/></g></svg>