<svg width="24" height="24" viewBox="0 0 24 24" xmlns="http://www.w3.org/2000/svg"><g transform="translate(.002)" fill="#FCC824" fill-rule="nonzero"><circle cx="11.9" cy="12.1" r="2.15"/><path d="M14.585 6.83H9.22c-.781 0-1.464.243-1.903.682-.439.44-.683 1.122-.683 1.903v5.365c0 .781.244 1.464.732 1.952.488.439 1.122.683 1.902.683h5.317c.78 0 1.464-.244 1.903-.683.488-.44.732-1.122.732-1.903V9.463c0-.78-.244-1.414-.683-1.902-.488-.488-1.122-.732-1.952-.732zm-2.683 8.585a3.32 3.32 0 01-3.317-3.317 3.32 3.32 0 013.317-3.318c1.805 0 3.366 1.464 3.366 3.318 0 1.853-1.512 3.317-3.366 3.317zm3.464-6a.77.77 0 01-.78-.78.77.77 0 01.78-.781.77.77 0 01.78.78.77.77 0 01-.78.78z"/><path d="M12 0C5.366 0 0 5.366 0 12s5.366 12 12 12 12-5.366 12-12c.049-6.634-5.366-12-12-12zm6.39 14.83c0 1.121-.39 2.097-1.073 2.78-.683.683-1.658 1.024-2.732 1.024H9.268c-1.073 0-2.048-.341-2.731-1.024-.732-.683-1.074-1.659-1.074-2.78V9.462c0-2.243 1.513-3.804 3.805-3.804h5.366c1.122 0 2.049.39 2.732 1.073.683.683 1.024 1.61 1.024 2.731v5.366z"/></g></svg>