<svg width="24" height="22" viewBox="0 0 24 22" xmlns="http://www.w3.org/2000/svg"><g fill="#671219" fill-rule="nonzero"><path d="M21.952 2.05A6.955 6.955 0 0017.002 0c-1.87 0-3.63.728-4.952 2.05L12 2.1l-.05-.049A6.956 6.956 0 007 .001C5.13 0 3.37.728 2.048 2.05a7.01 7.01 0 000 9.904l9.287 9.286a.94.94 0 001.33 0l9.286-9.287a7.01 7.01 0 00.001-9.903zm-1.33 8.574l-8.621 8.623-8.623-8.623a5.128 5.128 0 010-7.243A5.088 5.088 0 017 1.881a5.09 5.09 0 013.622 1.5l.714.715a.967.967 0 001.33 0l.714-.715a5.09 5.09 0 013.622-1.5c1.368 0 2.654.533 3.621 1.5a5.127 5.127 0 010 7.243z"/><path d="M16.702 8.878h-1.596l-2.584-1.723a.939.939 0 00-1.363.362l-1.404 2.809-1.935-1.29a.94.94 0 10-1.043 1.565l2.821 1.88a.942.942 0 001.362-.361l1.405-2.81 1.934 1.29a.942.942 0 00.522.158h1.881a.94.94 0 000-1.88z"/></g></svg>