<svg width="39" height="38" viewBox="0 0 39 38" xmlns="http://www.w3.org/2000/svg"><g transform="translate(1 1)" stroke="#671219" stroke-width="2" fill="none" fill-rule="evenodd" stroke-linecap="round" stroke-linejoin="round"><ellipse cx="23.53" cy="4.04" rx="4.02" ry="4.04"/><ellipse cx="33.78" cy="32.76" rx="3.22" ry="3.24"/><path d="M29.576 16.888h-.92c-3.186 0-3.61-1.043-5.486-3.634a11.482 11.482 0 00-3.975-3.441l-.052-.036a2.803 2.803 0 00-.242-.118C13.619 7.07 7.246 8.912 4.136 13.926l-.35.565a2.437 2.437 0 00.77 3.346c1.131.71 2.62.363 3.327-.775l.349-.565a6.618 6.618 0 015.648-3.149c.17 0 .34 0 .51.021l-4.665 8.44a2.41 2.41 0 01-2.111 1.247H2.413A2.42 2.42 0 000 25.483a2.42 2.42 0 002.413 2.427h5.203a7.232 7.232 0 005.715-2.812l3.56 3.178c.514.462.806 1.122.805 1.815v3.482A2.42 2.42 0 0020.109 36a2.42 2.42 0 002.413-2.427v-3.482a7.3 7.3 0 00-2.431-5.443l-4.292-3.838 2.947-5.339c.186.2.36.413.521.634 2.782 3.845 4.666 5.633 9.389 5.633h.92a2.42 2.42 0 002.413-2.427 2.42 2.42 0 00-2.413-2.427v.004z"/></g></svg>