<svg width="163" height="27" viewBox="0 0 163 27" xmlns="http://www.w3.org/2000/svg"><g fill="#FCC824" fill-rule="nonzero"><path d="M1.64 22.324l-.084-.042a.92.92 0 00-.21-.07 1.367 1.367 0 00-.294-.028.944.944 0 01-.644-.49 1.138 1.138 0 01-.084-.826c.075-.075.13-.233.168-.476a4.05 4.05 0 00.056-.588 2.2 2.2 0 00.14-.322c.019-.065.065-.247.14-.546.056-.317.154-.76.294-1.33.14-.57.299-1.18.476-1.834.177-.653.35-1.279.518-1.876.168-.597.322-1.101.462-1.512.14-.41.238-.644.294-.7v-.098-.21l.042-.266c.028-.177.117-.378.266-.602.075-.205.14-.43.196-.672.056-.243.084-.401.084-.476.075-.093.182-.322.322-.686.14-.364.275-.723.406-1.078.112-.299.238-.616.378-.952.14-.336.261-.625.364-.868l.154-.364v-.126-.014c.075-.075.257-.453.546-1.134.29-.681.686-1.563 1.19-2.646.075-.15.168-.317.28-.504.112-.187.168-.317.168-.392a.41.41 0 01.392-.21c.168.01.34.07.518.182.177.112.313.27.406.476l.28.448-1.008 2.016c-.299.523-.546.999-.742 1.428-.196.43-.294.681-.294.756l-.168.448c-.112.299-.243.653-.392 1.064-.15.41-.28.784-.392 1.12a15.464 15.464 0 01-.574 1.428c-.177.373-.266.597-.266.672 0-.037.205-.065.616-.084.41-.019.933-.028 1.568-.028s1.283-.005 1.946-.014l1.764-.028c.513-.01.863-.033 1.05-.07l1.456-.14.952-2.884c.15-.523.345-1.157.588-1.904.243-.747.457-1.381.644-1.904.299-.859.532-1.39.7-1.596.168-.205.364-.308.588-.308a.98.98 0 01.238.042c.103.028.205.075.308.14a.492.492 0 01.21.266c.224.205.331.439.322.7-.01.261-.163.607-.462 1.036a8.431 8.431 0 00-.742 1.638 27.006 27.006 0 01-.518 1.442c0 .224-.028.406-.084.546a.95.95 0 01-.196.322c-.037.037-.112.177-.224.42s-.215.485-.308.728-.14.392-.14.448c0 .13-.028.29-.084.476-.056.187-.121.317-.196.392a32.66 32.66 0 00-.252.84c-.13.448-.28.975-.448 1.582a39.494 39.494 0 01-.532 1.764c-.187.57-.355 1.04-.504 1.414 0 .13-.047.294-.14.49-.093.196-.14.369-.14.518l-.28.84c-.112.336-.168.55-.168.644-.093.43-.191.868-.294 1.316a43.48 43.48 0 00-.252 1.162 5.233 5.233 0 00-.098.574c-.075.075-.187.084-.336.028l-.532-.196c-.355-.205-.565-.425-.63-.658-.065-.233.005-.565.21-.994.093-.15.21-.518.35-1.106.14-.588.285-1.171.434-1.75.112-.28.233-.658.364-1.134.13-.476.261-.961.392-1.456.13-.495.243-.915.336-1.26.093-.345.159-.537.196-.574v-.196-.084c-.037-.037-.27-.07-.7-.098-.43-.028-.961-.037-1.596-.028-.635.01-1.293.028-1.974.056s-1.293.08-1.834.154H4.552l-.196.588c-.112.336-.243.742-.392 1.218-.15.476-.303.961-.462 1.456-.159.495-.29.943-.392 1.344-.103.401-.173.686-.21.854a75.96 75.96 0 01-.686 2.814l-.364 1.386c-.103.392-.173.644-.21.756zM17.096 19.02a1.205 1.205 0 01-.35-.392c-.065-.13-.07-.383-.014-.756.056-.523.13-.985.224-1.386a87.7 87.7 0 01.336-1.386c.037-.224.145-.607.322-1.148.177-.541.397-1.13.658-1.764.261-.635.523-1.237.784-1.806.261-.57.485-.994.672-1.274a.767.767 0 01.546-.14.853.853 0 01.546.252c.205.168.238.462.098.882-.14.42-.425 1.078-.854 1.974l-.504 1.134c-.112.252-.159.401-.14.448.019.047.103.023.252-.07.112-.205.317-.443.616-.714.299-.27.616-.537.952-.798.336-.261.653-.495.952-.7a6.49 6.49 0 01.616-.392c.15-.093.322-.173.518-.238s.331-.117.406-.154c.43-.205.868-.28 1.316-.224.448.056.728.224.84.504.019.15.08.261.182.336l.154.112c.075 0 .117.028.126.084l.014.084c0 .13-.098.21-.294.238a9.68 9.68 0 01-.742.07 2.18 2.18 0 00-.644.14c-.187.075-.41.168-.672.28-.71.41-1.386.812-2.03 1.204-.644.392-1.265.915-1.862 1.568-.13.15-.261.327-.392.532-.13.205-.27.43-.42.672-.093.093-.187.299-.28.616-.093.317-.173.62-.238.91a3.93 3.93 0 00-.098.518l-.084.266a1.66 1.66 0 01-.28.518c-.224.299-.41.448-.56.448-.15 0-.373-.15-.672-.448zM33.812 19.72c-.075 0-.182-.014-.322-.042a.558.558 0 01-.35-.238c-.28-.336-.457-.616-.532-.84-.075-.224-.084-.55-.028-.98.037-.28.06-.527.07-.742a6.93 6.93 0 01.042-.546c-.075-.075-.21-.023-.406.154-.196.177-.462.397-.798.658-.635.728-1.2 1.283-1.694 1.666-.495.383-.938.635-1.33.756a2.784 2.784 0 01-1.12.126 1.09 1.09 0 01-.756-.406c-.187-.233-.303-.537-.35-.91a5.719 5.719 0 01-.014-1.204c.075-.616.21-1.204.406-1.764.196-.56.518-1.185.966-1.876.205-.373.48-.742.826-1.106.345-.364.728-.69 1.148-.98.42-.29.826-.5 1.218-.63.43-.168.868-.266 1.316-.294a3.3 3.3 0 011.204.126c.224.112.406.168.546.168s.247-.093.322-.28c.093-.15.187-.378.28-.686.093-.308.205-.574.336-.798l.616-1.82c.205-.504.43-1.036.672-1.596.243-.56.532-1.241.868-2.044.317-.597.579-.947.784-1.05.205-.103.439-.023.7.238.205.243.28.518.224.826-.056.308-.224.798-.504 1.47-.13.205-.243.397-.336.574-.093.177-.224.453-.392.826a68.57 68.57 0 01-.672 1.554c-.205.457-.42.975-.644 1.554-.075.299-.173.644-.294 1.036s-.22.747-.294 1.064c-.056.299-.117.574-.182.826-.065.252-.135.378-.21.378-.15.168-.29.462-.42.882s-.238.854-.322 1.302l-.21 1.12a8.04 8.04 0 00-.084.868c-.019.355-.028.695-.028 1.022v.686c0 .41-.01.672-.028.784-.019.112-.093.168-.224.168zm-5.964-1.764c.392 0 .807-.168 1.246-.504.439-.336.882-.71 1.33-1.12.28-.261.583-.607.91-1.036.327-.43.644-.859.952-1.288.308-.43.555-.807.742-1.134.187-.327.28-.527.28-.602 0-.093-.084-.159-.252-.196a3.329 3.329 0 00-.574-.07 1.677 1.677 0 00-.518.042 3.48 3.48 0 00-1.218.56c-.401.28-.835.7-1.302 1.26a9.539 9.539 0 00-1.19 1.848c-.308.635-.5 1.167-.574 1.596-.075.43-.019.644.168.644zM37.06 25.572c-.448.13-.938.154-1.47.07a3.833 3.833 0 01-1.4-.49c-.401-.243-.63-.513-.686-.812-.019-.112.014-.233.098-.364a.643.643 0 01.308-.266c.121-.047.229-.014.322.098.15.093.42.21.812.35.392.14.83.163 1.316.07.43-.093.854-.345 1.274-.756.42-.41.76-.793 1.022-1.148.15-.224.401-.625.756-1.204a44.88 44.88 0 001.106-1.918c.383-.7.705-1.349.966-1.946l.196-.532c.075-.205.168-.373.28-.504.112-.224.21-.434.294-.63.084-.196.135-.331.154-.406.019-.093.103-.28.252-.56.15-.28.29-.56.42-.84.093-.28.233-.69.42-1.232.187-.541.373-.98.56-1.316l.546-1.05c.14-.27.294-.434.462-.49.168-.13.285-.196.35-.196s.2.056.406.168c.224.224.364.443.42.658.056.215.033.476-.07.784-.103.308-.294.723-.574 1.246-.15.448-.313.854-.49 1.218s-.313.602-.406.714c-.093.224-.2.471-.322.742-.121.27-.229.518-.322.742a36.91 36.91 0 01-.868 1.82 41.31 41.31 0 00-.644 1.288c-.187.392-.383.85-.588 1.372-.43.69-.845 1.349-1.246 1.974a17.93 17.93 0 01-1.274 1.75c-.187.168-.42.364-.7.588-.28.224-.565.43-.854.616a3.13 3.13 0 01-.826.392zm3.78-6.72c-.28-.037-.555-.205-.826-.504a3.588 3.588 0 01-.63-.952c-.15-.336-.205-.579-.168-.728v-.224-.084c-.112 0-.21-.14-.294-.42a5.497 5.497 0 01-.182-1.092c-.037-.448-.06-.924-.07-1.428-.01-.504.005-.98.042-1.428.075-.317.112-.667.112-1.05s.01-.686.028-.91c-.019-.299.01-.5.084-.602.075-.103.15-.182.224-.238.523-.224.873-.089 1.05.406.177.495.22 1.414.126 2.758a22.414 22.414 0 000 2.24c.037.747.145 1.4.322 1.96.177.56.425.943.742 1.148.13.075.196.177.196.308 0 .13-.037.266-.112.406a.936.936 0 01-.294.336.473.473 0 01-.35.098zm2.548-11.284c-.13-.13-.229-.327-.294-.588-.065-.261-.089-.43-.07-.504.019-.093.145-.28.378-.56a20.17 20.17 0 011.736-1.82c.29-.261.5-.42.63-.476.205-.13.401-.107.588.07.187.177.373.415.56.714.056.168-.014.369-.21.602-.196.233-.453.48-.77.742l-.938.77c-.308.252-.537.48-.686.686-.187.299-.331.476-.434.532-.103.056-.266 0-.49-.168zM63.884 18.712c-.373 0-.681-.08-.924-.238-.243-.159-.448-.425-.616-.798a6.647 6.647 0 01-.182-.882 6.549 6.549 0 01-.07-.924c0-.29.028-.48.084-.574.075-.075.107-.21.098-.406-.01-.196-.014-.406-.014-.63-.019-.373-.107-.583-.266-.63-.159-.047-.387.014-.686.182-.336.205-.775.48-1.316.826a48.86 48.86 0 00-1.694 1.134c-.588.41-1.143.84-1.666 1.288-.41.448-.658.789-.742 1.022-.084.233-.2.35-.35.35-.15.075-.275.08-.378.014a5.446 5.446 0 01-.434-.322c-.13-.15-.261-.294-.392-.434a1.617 1.617 0 01-.252-.322c0-.093.028-.29.084-.588.056-.299.126-.597.21-.896.084-.299.145-.495.182-.588.093 0 .173-.093.238-.28.065-.187.173-.392.322-.616.037-.224.135-.527.294-.91.159-.383.303-.723.434-1.022.261-.448.443-.821.546-1.12.103-.299.173-.672.21-1.12a.225.225 0 01.056-.21.252.252 0 01.196-.098.49.49 0 01.532-.126c.205.065.392.21.56.434.336.448.471.91.406 1.386-.065.476-.369 1.153-.91 2.03-.13.299-.229.527-.294.686a1.069 1.069 0 00-.098.378l.294-.196c.196-.13.42-.285.672-.462.252-.177.453-.313.602-.406.093-.093.308-.261.644-.504s.695-.48 1.078-.714c.383-.233.667-.369.854-.406.15-.075.308-.145.476-.21.168-.065.29-.098.364-.098.15 0 .34.08.574.238.233.159.453.345.658.56.205.215.327.397.364.546a1.804 1.804 0 00.056.448c.075.243.117.57.126.98.01.41-.005.784-.042 1.12-.037.336-.103.532-.196.588l.014.07c.01.047.051.07.126.07v.14c-.093 0-.13.08-.112.238.019.159.08.331.182.518.103.187.21.336.322.448.224.224.317.434.28.63-.037.196-.205.331-.504.406zM66.768 18.992a.968.968 0 00-.28-.35c-.112-.084-.168-.163-.168-.238a2.16 2.16 0 00-.014-.238.4.4 0 00-.126-.238c-.093-.112-.084-.369.028-.77s.299-.896.56-1.484c.261-.588.57-1.209.924-1.862.15-.15.299-.345.448-.588.15-.243.261-.401.336-.476 0-.075.028-.145.084-.21a.252.252 0 01.196-.098v-.168c0-.093.089-.252.266-.476.177-.224.397-.471.658-.742.261-.27.532-.532.812-.784s.513-.434.7-.546c.392-.261.798-.42 1.218-.476.42-.056.78.037 1.078.28l.28.28c.13.13.285.275.462.434l.546.49 1.036.924-.504 1.4c-.243.747-.303 1.4-.182 1.96s.303 1.045.546 1.456c.093.205.285.401.574.588.29.187.565.299.826.336.15.019.29.075.42.168.13.093.196.243.196.448a.796.796 0 01-.112.448c-.075.112-.205.187-.392.224-.616.075-1.19-.075-1.722-.448s-1.022-.99-1.47-1.848c-.075-.112-.173-.322-.294-.63a4.771 4.771 0 01-.21-.602l-.42.518a7.843 7.843 0 01-.476.546c-1.325 1.344-2.469 2.245-3.43 2.702-.961.457-1.76.48-2.394.07zm1.008-1.568c0 .13.2.126.602-.014.401-.14.835-.397 1.302-.77a30.43 30.43 0 001.918-1.792c.644-.653 1.162-1.26 1.554-1.82l.616-1.008c-.187-.43-.387-.723-.602-.882-.215-.159-.397-.238-.546-.238-.243 0-.602.224-1.078.672-.476.448-.985 1.045-1.526 1.792a22.234 22.234 0 00-1.54 2.464c-.187.373-.35.733-.49 1.078l-.21.518zM88.244 19.748c-.467.037-.91.01-1.33-.084a2.546 2.546 0 01-1.064-.49 1.821 1.821 0 01-.602-.854c-.13-.261-.196-.443-.196-.546 0-.103.065-.191.196-.266.15 0 .285.042.406.126.121.084.285.173.49.266.28.243.62.373 1.022.392a2.41 2.41 0 001.106-.196c.336-.15.523-.336.56-.56a1.63 1.63 0 00-.084-.392 10.84 10.84 0 00-.196-.588c-.504-.71-.873-1.414-1.106-2.114-.233-.7-.35-1.274-.35-1.722 0-.336.103-.695.308-1.078.205-.383.485-.705.84-.966.336-.355.71-.672 1.12-.952.41-.28.826-.523 1.246-.728.42-.205.798-.355 1.134-.448.205 0 .476.028.812.084.336.056.57.121.7.196.205.075.401.275.588.602.187.327.28.649.28.966 0 .13-.037.299-.112.504a4.374 4.374 0 01-.364.728 4.624 4.624 0 01-.252.574c-.093.177-.14.303-.14.378-.093.205-.22.303-.378.294-.159-.01-.317-.093-.476-.252a1.756 1.756 0 01-.378-.574c-.075-.28-.103-.509-.084-.686.019-.177.093-.369.224-.574.205-.205.308-.345.308-.42 0-.075-.103-.112-.308-.112-.13 0-.369.08-.714.238-.345.159-.71.364-1.092.616a6.298 6.298 0 00-.994.798c-.355.336-.565.579-.63.728-.065.15-.098.383-.098.7 0 .261.06.588.182.98.121.392.247.653.378.784l.196.378c.13.252.29.518.476.798.541 1.195.681 2.053.42 2.576-.261.523-.943.821-2.044.896zM98.044 19.104c-.15.019-.36-.065-.63-.252a4.429 4.429 0 01-.742-.644c-.13-.205-.252-.513-.364-.924a9.012 9.012 0 01-.252-1.372c-.056-.504-.084-.99-.084-1.456.019-.467.07-.985.154-1.554.084-.57.168-1.097.252-1.582.084-.485.145-.812.182-.98a1.61 1.61 0 01.49-.392.611.611 0 01.434-.056c.13.037.252.14.364.308.261.13.387.336.378.616-.01.28-.098.607-.266.98 0 .093-.019.22-.056.378a9.553 9.553 0 01-.112.434c-.15.261-.233.495-.252.7 0 .187.028.401.084.644a.792.792 0 01-.14.672v-.028c-.019.13-.023.355-.014.672.01.317.037.63.084.938.047.308.117.527.21.658.019.168.117.247.294.238.177-.01.406-.135.686-.378.224-.224.48-.504.77-.84a15.763 15.763 0 001.428-1.96c.159-.261.22-.43.182-.504-.075-.15-.033-.275.126-.378.159-.103.294-.2.406-.294a.716.716 0 00.168-.35c.019-.121.065-.247.14-.378a.986.986 0 00.224-.392c-.056-.13-.014-.247.126-.35.14-.103.229-.21.266-.322.037-.187.107-.317.21-.392a.42.42 0 01.35-.07c.13.028.247.093.35.196a.689.689 0 01.182.434c0 .224-.08.55-.238.98-.159.43-.36.887-.602 1.372a9.803 9.803 0 01-.784 1.316c-.093.15-.177.299-.252.448-.075.15-.191.345-.35.588-.159.243-.425.597-.798 1.064-.15.15-.299.303-.448.462-.15.159-.299.303-.448.434-.355.41-.663.728-.924.952-.261.224-.523.345-.784.364zM111.092 19.944a3.656 3.656 0 01-.56-.77 4.636 4.636 0 01-.448-1.134 2.315 2.315 0 01-.042-.616c.01-.261.005-.448-.014-.56-.056.13-.145.266-.266.406-.121.14-.238.257-.35.35-.075.075-.243.22-.504.434a4.207 4.207 0 01-.784.518c-.616.392-1.125.607-1.526.644-.401.037-.78-.168-1.134-.616-.299-.243-.509-.513-.63-.812-.121-.299-.126-.71-.014-1.232.037-.653.13-1.293.28-1.918.15-.625.457-1.46.924-2.506.392-.765.69-1.33.896-1.694.205-.364.336-.583.392-.658.28-.093.513-.089.7.014.187.103.299.285.336.546.112.187.098.504-.042.952-.14.448-.378.999-.714 1.652-.261.635-.5 1.27-.714 1.904-.215.635-.34 1.176-.378 1.624-.037.448.075.719.336.812.168.093.462.065.882-.084.42-.15.896-.523 1.428-1.12.532-.597 1.05-1.503 1.554-2.716.15-.373.261-.705.336-.994.075-.29.121-.611.14-.966a1.166 1.166 0 01.042-.602c.065-.177.21-.331.434-.462.075-.093.177-.182.308-.266.13-.084.215-.08.252.014l.448-.028c.075-.019.126.023.154.126a.51.51 0 00.182.266c.205.168.261.532.168 1.092s-.355 1.344-.784 2.352c-.355.765-.593 1.344-.714 1.736a4.666 4.666 0 00-.21 1.148c0 .336.065.653.196.952.13.299.336.57.616.812.205.13.322.28.35.448a2.4 2.4 0 01.014.588c-.037.168-.145.303-.322.406a1.18 1.18 0 01-.602.154 1.05 1.05 0 01-.616-.196zm.28-11.508c-.635 0-1.092-.191-1.372-.574-.28-.383-.448-.845-.504-1.386 0-.355.08-.737.238-1.148.159-.41.383-.765.672-1.064.29-.299.63-.448 1.022-.448.597 0 1.101.135 1.512.406.41.27.616.677.616 1.218 0 .448-.089.905-.266 1.372a3.15 3.15 0 01-.742 1.162c-.317.308-.71.462-1.176.462zm-.112-1.12c.336 0 .607-.107.812-.322.205-.215.299-.546.28-.994a2.91 2.91 0 00-.14-.7c-.075-.224-.27-.336-.588-.336-.71 0-1.064.467-1.064 1.4 0 .187.08.392.238.616.159.224.313.336.462.336z"/><path d="M113.64 25.432c-.41.41-.938.611-1.582.602a2.232 2.232 0 01-1.638-.714 4.556 4.556 0 01-.518-1.148c-.121-.41-.177-.77-.168-1.078.01-.308.107-.462.294-.462a.41.41 0 01.252.084c.075.056.14.135.196.238a.78.78 0 01.084.378c0 .28.065.532.196.756.13.224.317.336.56.336.205.075.48.019.826-.168a2.15 2.15 0 00.826-.784c.187-.243.415-.625.686-1.148.27-.523.541-1.069.812-1.638.27-.57.471-1.031.602-1.386.224-.765.425-1.55.602-2.352.177-.803.36-1.661.546-2.576.075-.504.163-.938.266-1.302.103-.364.154-.583.154-.658 0-.075.01-.229.028-.462.019-.233.075-.443.168-.63 0-.28.023-.527.07-.742.047-.215.07-.36.07-.434.056-.056.135-.075.238-.056.103.019.215.056.336.112.121.056.229.13.322.224.15.15.247.299.294.448.047.15.056.383.028.7-.028.317-.089.821-.182 1.512 0 .112-.028.34-.084.686-.056.345-.13.733-.224 1.162-.093.43-.187.845-.28 1.246a60.64 60.64 0 00-.224.994c-.075.28-.159.588-.252.924-.093.336-.15.57-.168.7a5.225 5.225 0 01-.196.658c-.112.327-.229.649-.35.966-.121.317-.191.541-.21.672-.019.075-.07.252-.154.532-.084.28-.257.71-.518 1.288a6.937 6.937 0 01-.462.868c-.215.355-.434.686-.658.994-.224.308-.42.527-.588.658zm4.424-19.012c-.205-.243-.275-.56-.21-.952.065-.392.247-.784.546-1.176.243-.28.504-.439.784-.476.28-.037.541.047.784.252.205.317.308.574.308.77 0 .196-.103.443-.308.742-.467.523-.84.845-1.12.966-.28.121-.541.08-.784-.126zM127.444 19.384a2.172 2.172 0 01-.42-.364c-.093-.112-.13-.27-.112-.476a8.548 8.548 0 01.448-1.792c.056-.336.126-.672.21-1.008.084-.336.229-.653.434-.952.243-.69.495-1.377.756-2.058.261-.681.485-1.395.672-2.142.28-.672.537-1.27.77-1.792.233-.523.518-1.195.854-2.016.187-.43.35-.91.49-1.442.14-.532.36-1.003.658-1.414.13-.168.229-.313.294-.434a4.34 4.34 0 01.21-.35c.037-.112.163-.15.378-.112.215.037.369.121.462.252.093-.019.205.103.336.364.13.261.177.467.14.616 0 .205-.075.43-.224.672-.075.075-.15.182-.224.322-.075.14-.187.322-.336.546l-.224.728a5.614 5.614 0 01-.252.672c-.093.205-.196.41-.308.616a2.634 2.634 0 00-.224.504c-.168.43-.35.845-.546 1.246-.196.401-.369.826-.518 1.274-.15.43-.303.882-.462 1.358a6.645 6.645 0 01-.63 1.358c-.13.187-.233.439-.308.756-.075.317-.15.625-.224.924-.13.336-.247.644-.35.924-.103.28-.154.457-.154.532-.13.41-.233.817-.308 1.218a3.396 3.396 0 01-.364 1.05c-.019.28-.098.467-.238.56-.14.093-.369.047-.686-.14zm6.692.448c-.299-.037-.523-.098-.672-.182-.15-.084-.43-.275-.84-.574-.224-.224-.532-.57-.924-1.036a29.963 29.963 0 01-1.176-1.498 70.722 70.722 0 01-.98-1.358l1.148-1.54c.243.299.439.579.588.84.15.261.27.439.364.532.43.635.77 1.148 1.022 1.54.252.392.48.71.686.952.205.243.425.457.658.644a7.2 7.2 0 00.882.588.713.713 0 01.168.168c.056.075.075.187.056.336-.075.205-.154.331-.238.378-.084.047-.331.117-.742.21zm-4.676-4.956c-.112-.317-.07-.64.126-.966.196-.327.415-.555.658-.686a.677.677 0 01.238-.266.29.29 0 00.154-.182c.037-.075.135-.177.294-.308.159-.13.303-.252.434-.364a26.213 26.213 0 002.128-1.512c.355-.28.658-.523.91-.728.252-.205.406-.336.462-.392a.427.427 0 01.238-.154c.103-.028.238-.005.406.07.224.056.373.145.448.266.075.121.112.35.112.686.056.205-.023.425-.238.658-.215.233-.537.49-.966.77-.15.093-.35.233-.602.42a8.963 8.963 0 00-.658.532c-.13.075-.322.2-.574.378-.252.177-.471.35-.658.518-.15.093-.345.257-.588.49a2.7 2.7 0 01-.728.518c-.597.56-.99.859-1.176.896-.187.037-.327-.177-.42-.644zM137.496 20.252a.998.998 0 01-.532-.434c-.112-.196-.177-.48-.196-.854 0-.224.037-.523.112-.896.075-.373.159-.803.252-1.288 0-.037.005-.08.014-.126a.59.59 0 00.014-.098c.019-.075.042-.187.07-.336.028-.15.051-.266.07-.35.019-.084.028-.08.028.014l.196-.756.28-1.008c.093-.336.177-.63.252-.882.075-.252.121-.397.14-.434l.112-.322c.075-.215.15-.425.224-.63.317-.877.607-1.62.868-2.226.261-.607.495-1.05.7-1.33.019-.056.047-.126.084-.21.037-.084.065-.154.084-.21.019-.15.042-.266.07-.35a.836.836 0 01.126-.238c.037-.075.093-.173.168-.294.075-.121.159-.275.252-.462l.112-.308c.112-.243.252-.513.42-.812l.364-.644c.075-.168.187-.369.336-.602a3.14 3.14 0 01.336-.462l-.028-.028c.093-.168.21-.266.35-.294a2.36 2.36 0 01.462-.042c.261 0 .41.037.448.112.037.075.056.243.056.504 0 .28-.005.48-.014.602-.01.121-.089.257-.238.406h.028c.037-.037.028.005-.028.126s-.103.21-.14.266l-.126.308a.78.78 0 01-.154.252c-.056.075-.191.322-.406.742-.215.42-.457.91-.728 1.47-.27.56-.527 1.101-.77 1.624-.243.523-.42.924-.532 1.204l-.14.42a.43.43 0 00-.056.168l-.168.392c-.056.13-.112.243-.168.336l-.476 1.624-.14.588-.252.616-.168.532a2.589 2.589 0 00-.084.308.426.426 0 01-.112.224.23.23 0 01-.014.07.23.23 0 00-.014.07c-.075.299-.159.719-.252 1.26a15.89 15.89 0 00-.196 1.708.124.124 0 01-.014.056.124.124 0 00-.014.056c-.056.392-.15.653-.28.784-.13.13-.327.159-.588.084zM148.892 19.944a3.656 3.656 0 01-.56-.77 4.636 4.636 0 01-.448-1.134 2.315 2.315 0 01-.042-.616c.01-.261.005-.448-.014-.56-.056.13-.145.266-.266.406-.121.14-.238.257-.35.35-.075.075-.243.22-.504.434a4.207 4.207 0 01-.784.518c-.616.392-1.125.607-1.526.644-.401.037-.78-.168-1.134-.616-.299-.243-.509-.513-.63-.812-.121-.299-.126-.71-.014-1.232.037-.653.13-1.293.28-1.918.15-.625.457-1.46.924-2.506.392-.765.69-1.33.896-1.694.205-.364.336-.583.392-.658.28-.093.513-.089.7.014.187.103.299.285.336.546.112.187.098.504-.042.952-.14.448-.378.999-.714 1.652-.261.635-.5 1.27-.714 1.904-.215.635-.34 1.176-.378 1.624-.037.448.075.719.336.812.168.093.462.065.882-.084.42-.15.896-.523 1.428-1.12.532-.597 1.05-1.503 1.554-2.716.15-.373.261-.705.336-.994.075-.29.121-.611.14-.966a1.166 1.166 0 01.042-.602c.065-.177.21-.331.434-.462.075-.093.177-.182.308-.266.13-.084.215-.08.252.014l.448-.028c.075-.019.126.023.154.126a.51.51 0 00.182.266c.205.168.261.532.168 1.092s-.355 1.344-.784 2.352c-.355.765-.593 1.344-.714 1.736a4.666 4.666 0 00-.21 1.148c0 .336.065.653.196.952.13.299.336.57.616.812.205.13.322.28.35.448a2.4 2.4 0 01.014.588c-.037.168-.145.303-.322.406a1.18 1.18 0 01-.602.154 1.05 1.05 0 01-.616-.196zM155.388 19.524c-.373-.037-.602-.084-.686-.14-.084-.056-.182-.205-.294-.448-.15-.168-.238-.299-.266-.392a.473.473 0 01-.014-.252c.093 0 .177-.005.252-.014.075-.01.121-.042.14-.098 0-.056.033-.093.098-.112a.4.4 0 01.21 0c.355.019.807-.098 1.358-.35.55-.252 1.148-.607 1.792-1.064a20.195 20.195 0 001.89-1.526c.485-.635.84-1.134 1.064-1.498.224-.364.355-.663.392-.896a.913.913 0 00-.084-.602c-.075-.15-.345-.21-.812-.182-.467.028-.99.229-1.568.602-.803.504-1.447.97-1.932 1.4-.485.43-.933.915-1.344 1.456-.15.187-.294.41-.434.672a27.535 27.535 0 00-.49.952c0 .075-.107.168-.322.28-.215.112-.397.168-.546.168a1.635 1.635 0 01-.294-.21.72.72 0 01-.238-.406 2.382 2.382 0 01-.28-.224.415.415 0 01-.112-.196c-.019-.112.01-.29.084-.532.075-.243.177-.625.308-1.148.112-.485.238-.99.378-1.512.14-.523.275-.97.406-1.344.13-.373.224-.579.28-.616l.112-.252c.075-.168.112-.364.112-.588.037-.224.098-.42.182-.588.084-.168.126-.29.126-.364.075-.056.187-.28.336-.672.15-.392.336-.905.56-1.54 0-.056.065-.238.196-.546.13-.308.29-.672.476-1.092.187-.42.378-.859.574-1.316.196-.457.36-.863.49-1.218.224-.317.397-.611.518-.882.121-.27.247-.434.378-.49a.912.912 0 01.35.014c.14.028.28.08.42.154.14.075.257.187.35.336a.953.953 0 01.112.252c.019.075-.01.21-.084.406-.075.196-.22.523-.434.98-.215.457-.527 1.115-.938 1.974a46.658 46.658 0 00-1.288 2.996 57.01 57.01 0 00-.84 2.324c-.224.672-.43 1.25-.616 1.736l-.14.616.7-.672c.28-.205.588-.457.924-.756.336-.299.635-.56.896-.784.15-.112.35-.229.602-.35.252-.121.5-.229.742-.322.243-.093.42-.15.532-.168a5.03 5.03 0 011.232-.14c.41 0 .742.093.994.28.252.187.5.485.742.896.205.392.29.835.252 1.33a3.076 3.076 0 01-.448 1.386 1.707 1.707 0 00-.28.294c-.093.121-.14.22-.14.294-.019.13-.187.397-.504.798s-.635.78-.952 1.134a8.4 8.4 0 01-1.232 1.05 16.91 16.91 0 01-1.442.924c-.476.27-.882.462-1.218.574-.15.019-.364.051-.644.098-.28.047-.495.089-.644.126z"/></g></svg>