<svg width="24" height="24" viewBox="0 0 24 24" xmlns="http://www.w3.org/2000/svg"><path d="M12.001 0c6.628 0 12 5.374 12 12 0 6.628-5.372 12-12 12-6.627 0-12-5.372-12-12 0-6.626 5.373-12 12-12zm2.838 6.335a2.953 2.953 0 00-2.876 3.626 8.384 8.384 0 01-6.087-3.085 2.951 2.951 0 00.914 3.942 2.944 2.944 0 01-1.337-.37v.038A2.955 2.955 0 007.82 13.38a2.969 2.969 0 01-1.333.05 2.956 2.956 0 002.758 2.05 5.923 5.923 0 01-4.372 1.224 8.356 8.356 0 004.527 1.326c5.43 0 8.4-4.499 8.4-8.4a8.75 8.75 0 00-.008-.383 5.98 5.98 0 001.473-1.528 5.875 5.875 0 01-1.696.465A2.958 2.958 0 0018.87 6.55a5.91 5.91 0 01-1.875.717 2.949 2.949 0 00-2.155-.933z" fill="#FCC824" fill-rule="nonzero"/></svg>