<svg width="16" height="16" viewBox="0 0 16 16" xmlns="http://www.w3.org/2000/svg"><g fill="none" fill-rule="evenodd"><path d="M0 0h15.75v15.75H0z"/><path d="M15.754 2.867a6.311 6.311 0 01-1.856.521 3.307 3.307 0 001.421-1.832 6.365 6.365 0 01-2.054.803 3.188 3.188 0 00-2.358-1.046c-1.784 0-3.231 1.484-3.231 3.314 0 .26.027.512.083.755-2.686-.139-5.067-1.457-6.662-3.464a3.375 3.375 0 00-.438 1.668c0 1.149.57 2.164 1.438 2.758a3.174 3.174 0 01-1.465-.413v.04c0 1.607 1.115 2.947 2.594 3.25a3.14 3.14 0 01-1.46.058c.411 1.316 1.604 2.275 3.019 2.3A6.382 6.382 0 010 12.953a9 9 0 004.954 1.488c5.946 0 9.196-5.05 9.196-9.43 0-.143-.003-.287-.008-.429a6.63 6.63 0 001.612-1.715" fill="#00AAEC"/></g></svg>