<svg width="24" height="24" viewBox="0 0 24 24" xmlns="http://www.w3.org/2000/svg"><g fill="#FCC824" fill-rule="nonzero"><path d="M6.878 13.01h.87v4.316h.839V13.01h.868v-.735H6.878zM12.034 9.424c.114 0 .205-.03.272-.093.066-.063.1-.15.1-.26V6.836a.263.263 0 00-.102-.217.412.412 0 00-.27-.084.367.367 0 00-.25.084.271.271 0 00-.094.217v2.237c0 .112.03.199.09.26.058.061.144.092.254.092zM13.885 13.555c-.116 0-.23.03-.343.088a1.15 1.15 0 00-.319.26v-1.628h-.753v5.051h.753v-.285a.96.96 0 00.318.253c.113.054.244.081.39.081.22 0 .39-.07.506-.21.117-.142.175-.344.175-.608V14.49c0-.305-.061-.538-.187-.696-.124-.159-.304-.238-.54-.238zm-.04 2.9c0 .12-.022.204-.065.256-.043.053-.11.08-.201.08a.435.435 0 01-.18-.04.608.608 0 01-.176-.132v-2.322a.522.522 0 01.153-.114.347.347 0 01.158-.037c.1 0 .178.032.232.096.053.066.078.16.078.288v1.924zM11.164 16.432c-.07.08-.146.145-.23.198a.426.426 0 01-.208.078c-.07 0-.12-.019-.153-.059-.03-.039-.047-.102-.047-.19v-2.86h-.744v3.117c0 .223.044.387.13.5.09.11.218.165.39.165a.91.91 0 00.433-.118c.15-.08.292-.194.43-.345v.408h.745V13.6h-.745v2.832z"/><path d="M12.002 0c-6.627 0-12 5.373-12 12 0 6.628 5.373 12 12 12s12-5.372 12-12c0-6.627-5.373-12-12-12zm1.938 5.927h.838v3.147c0 .098.02.168.054.21.034.045.092.067.17.067.062 0 .14-.03.235-.086.093-.06.18-.132.257-.223V5.927h.84v4.105h-.84v-.453a1.76 1.76 0 01-.482.381 1.052 1.052 0 01-.486.132c-.194 0-.34-.062-.439-.185-.097-.12-.147-.304-.147-.55v-3.43zm-3.113.938c0-.317.112-.57.337-.76.227-.187.53-.282.911-.282.347 0 .631.1.854.298.22.197.331.455.331.769v2.12c0 .352-.108.627-.324.825-.22.2-.518.3-.899.3-.366 0-.66-.104-.88-.308-.22-.208-.33-.486-.33-.834V6.865zM8.542 4.468l.613 2.223h.06l.583-2.223h.96L9.659 7.724v2.308h-.944V7.827l-1.124-3.36h.951zm10.984 11.711a2.69 2.69 0 01-2.69 2.69H7.493a2.69 2.69 0 01-2.69-2.69v-2.163a2.69 2.69 0 012.69-2.69h9.345a2.69 2.69 0 012.689 2.69v2.163z"/><path d="M16.134 13.508c-.334 0-.604.1-.815.305-.21.203-.317.468-.317.788v1.676c0 .36.097.64.288.845.192.204.454.307.788.307.372 0 .65-.096.836-.288.189-.194.28-.482.28-.864v-.192h-.765v.17c0 .22-.026.361-.074.425-.049.064-.135.096-.26.096-.118 0-.202-.037-.252-.112-.048-.077-.072-.212-.072-.41v-.7h1.424v-.952c0-.353-.09-.623-.274-.812-.183-.188-.446-.282-.787-.282zm.295 1.466h-.658v-.377c0-.156.024-.27.076-.334.052-.07.137-.103.256-.103.112 0 .197.033.247.103.051.064.078.177.078.334v.377z"/></g></svg>